<svg width="477" height="532" viewBox="0 0 477 532" fill="none" xmlns="http://www.w3.org/2000/svg">
<path d="M154.923 495.614C221.875 533.351 330.439 533.351 397.391 495.614C464.343 457.877 464.343 396.709 397.391 358.972C330.439 321.235 221.875 321.248 154.923 358.972C87.9707 396.695 87.9707 457.823 154.923 495.614Z" fill="#F5F5F5"/>
<path d="M199.831 342.156C199.52 341.7 199.694 311.143 190.091 302.057C180.487 292.972 172.015 300.179 177.576 311.062C181.308 318.242 191.621 330.951 191.633 343.123L199.831 342.156Z" fill="#BA68C8"/>
<path opacity="0.6" d="M199.831 342.156C199.52 341.7 199.694 311.143 190.091 302.057C180.487 292.972 172.015 300.179 177.576 311.062C181.308 318.242 191.621 330.951 191.633 343.123L199.831 342.156Z" fill="white"/>
<path d="M196.46 342.868C196.333 342.868 196.21 342.818 196.116 342.726C196.021 342.634 195.962 342.507 195.95 342.371C193.064 313.075 182.191 302.581 182.079 302.473C181.977 302.377 181.914 302.241 181.905 302.095C181.896 301.949 181.94 301.805 182.03 301.695C182.119 301.585 182.245 301.517 182.38 301.507C182.515 301.497 182.649 301.545 182.751 301.641C183.211 302.071 194.047 312.471 196.97 342.25C196.984 342.398 196.944 342.545 196.857 342.661C196.771 342.776 196.646 342.851 196.51 342.868H196.46Z" fill="white"/>
<path d="M197.978 374.498C194.457 357.254 189.431 347.242 169.54 336.198C151.216 326.012 135.454 315.249 153.778 311.344C168.992 308.096 198.276 334.158 199.321 356.972L197.978 374.498Z" fill="#BA68C8"/>
<path d="M196.025 352.825C195.92 352.828 195.818 352.795 195.731 352.733C195.644 352.671 195.578 352.581 195.539 352.476C189.531 335.191 170.336 318.47 153.704 315.961C153.569 315.937 153.448 315.858 153.367 315.741C153.286 315.623 153.25 315.475 153.268 315.33C153.277 315.257 153.3 315.187 153.334 315.124C153.369 315.061 153.415 315.006 153.469 314.962C153.524 314.919 153.586 314.887 153.651 314.869C153.717 314.852 153.786 314.849 153.853 314.86C170.846 317.423 190.377 334.467 196.51 352.087C196.554 352.226 196.546 352.378 196.488 352.511C196.43 352.644 196.326 352.747 196.199 352.798L196.025 352.825Z" fill="white"/>
<path d="M344.409 400.654C343.886 401.406 343.799 403.137 343.264 405.485C342.724 407.213 342.599 409.06 342.904 410.853C344.154 413.105 346.136 414.774 348.464 415.537C351.326 416.503 354.846 415.698 358.255 413.497C361.663 411.296 364.238 408.626 369.102 407.136C373.966 405.646 376.38 404.452 378.681 402.439C381.381 400.104 384.976 393.662 379.826 392.173C374.675 390.683 363.467 395.944 353.279 396.427L344.409 400.654Z" fill="#263238"/>
<path d="M344.409 393.783V402.023C344.717 402.951 345.261 403.768 345.978 404.38C346.694 404.992 347.556 405.375 348.464 405.485C349.302 405.63 350.161 405.533 350.952 405.204C352.189 404.691 353.262 403.801 354.039 402.643C354.816 401.486 355.265 400.109 355.331 398.681L355.63 393.783H344.409Z" fill="#FFA8A7"/>
<path d="M358.989 342.894C359.051 353.134 356.326 397.393 356.326 397.393C356.326 397.393 352.445 402.694 344.011 397.393L341.137 347.994L358.989 342.894Z" fill="#BA68C8"/>
<path opacity="0.5" d="M358.989 342.894C359.051 353.134 356.326 397.393 356.326 397.393C356.326 397.393 352.445 402.694 344.011 397.393L341.137 347.994L358.989 342.894Z" fill="black"/>
<path d="M334.357 435.788C335.427 427.239 343.65 411.162 357.77 404.371C371.889 397.581 388.969 399.5 392.216 402.452C395.463 405.405 396.309 411.578 389.516 413.564C382.724 415.55 377.387 418.932 381.592 422.757C385.797 426.582 387.103 431.856 380.224 433.292C373.344 434.727 365.221 429.44 363.305 434.164C361.39 438.888 365.433 442.511 357.77 444.215C350.106 445.92 340.689 439.532 335.378 448.953L334.357 435.788Z" fill="#BA68C8"/>
<path d="M334.818 442.256C334.752 442.269 334.684 442.269 334.619 442.256C334.556 442.228 334.5 442.187 334.452 442.136C334.405 442.084 334.367 442.023 334.342 441.955C334.316 441.888 334.303 441.816 334.304 441.743C334.304 441.67 334.318 441.598 334.345 441.531C344.819 414.691 375.098 402.613 385.66 403.338C385.796 403.348 385.924 403.416 386.014 403.526C386.105 403.637 386.152 403.781 386.145 403.929C386.142 404.002 386.125 404.074 386.096 404.141C386.066 404.207 386.025 404.266 385.974 404.315C385.923 404.364 385.863 404.401 385.799 404.425C385.734 404.448 385.666 404.457 385.598 404.452C377.213 403.902 346.2 414.088 335.29 441.961C335.246 442.053 335.177 442.13 335.094 442.183C335.01 442.235 334.914 442.26 334.818 442.256Z" fill="white"/>
<path d="M376.28 425.83C376.21 425.843 376.139 425.843 376.069 425.83C375.932 425.749 361.713 418.959 348.576 422.139C348.511 422.157 348.443 422.16 348.376 422.149C348.31 422.137 348.246 422.111 348.189 422.073C348.132 422.034 348.083 421.983 348.045 421.923C348.006 421.863 347.98 421.795 347.967 421.723C347.952 421.653 347.95 421.58 347.962 421.509C347.973 421.438 347.998 421.37 348.033 421.309C348.106 421.185 348.22 421.098 348.352 421.066C361.825 417.805 376.355 424.743 376.492 424.81C376.603 424.858 376.695 424.948 376.752 425.062C376.808 425.177 376.825 425.309 376.8 425.436C376.775 425.563 376.709 425.676 376.613 425.756C376.518 425.835 376.4 425.876 376.28 425.87V425.83Z" fill="white"/>
<path d="M259.469 301.547L214.971 329.26L320.661 395.085L354.037 374.297L365.159 367.372L259.469 301.547Z" fill="#BA68C8"/>
<path d="M365.159 367.373V374.311L331.782 395.098L331.77 388.16L365.159 367.373Z" fill="#BA68C8"/>
<path opacity="0.2" d="M365.159 367.373V374.311L331.782 395.098L331.77 388.16L365.159 367.373Z" fill="black"/>
<path d="M264.233 336.198C264.233 336.198 303.208 323.503 309.975 321.503C316.742 319.503 329.755 316.135 333.549 317.973C337.343 319.812 339.271 321.932 339.619 327.851C339.694 328.964 339.619 334.373 339.619 334.373C339.619 334.373 320.785 340.653 305.36 340.653C289.934 340.653 264.233 336.198 264.233 336.198Z" fill="#BA68C8"/>
<path opacity="0.6" d="M264.233 336.198C264.233 336.198 303.208 323.503 309.975 321.503C316.742 319.503 329.755 316.135 333.549 317.973C337.343 319.812 339.271 321.932 339.619 327.851C339.694 328.964 339.619 334.373 339.619 334.373C339.619 334.373 320.785 340.653 305.36 340.653C289.934 340.653 264.233 336.198 264.233 336.198Z" fill="black"/>
<path d="M297.547 264.75L294.96 279.82L280.629 281.605L282.694 260.804L297.547 264.75Z" fill="#FFA8A7"/>
<path d="M310.908 252.712C310.908 252.712 312.786 258.925 312.214 259.315C311.184 259.55 310.127 259.614 309.079 259.503L310.908 252.712Z" fill="#F28F8F"/>
<path d="M307.176 232.783C309.664 235.588 311.99 240.272 310.908 252.148C309.776 265.166 306.168 268.642 304.688 269.393C302.411 270.534 294.736 268.548 292.173 266.548C289.038 264.052 283.117 257.825 281.574 250.162C279.758 241.144 282.084 230.891 288.193 228.811C296.851 225.872 305.136 230.408 307.176 232.783Z" fill="#FFA8A7"/>
<path d="M312.861 239.185C311.393 242.164 308.631 249.585 300.782 251.679C300.782 251.679 300.346 246.633 296.465 246.579C292.584 246.525 291.265 251.692 293.193 255.289C295.122 258.885 297.547 258.067 297.547 258.067C297.547 258.067 297.149 265.166 292.41 267.702C292.41 267.702 286.7 270.507 281.5 266.924C279.161 265.313 276.449 258.322 275.056 252.712C272.095 240.849 272.63 231.763 279.621 229.898C281.089 224.919 283.465 223.322 287.857 223.014C297.336 222.329 303.456 229.898 311.331 229.898C315.436 229.898 314.528 235.789 312.861 239.185Z" fill="#263238"/>
<path d="M279.808 230.757L275.056 228.556C275.189 228.22 275.382 227.916 275.624 227.661C275.866 227.406 276.153 227.205 276.467 227.069C276.781 226.933 277.117 226.865 277.456 226.869C277.794 226.874 278.128 226.95 278.44 227.093C278.751 227.237 279.033 227.445 279.269 227.706C279.506 227.968 279.692 228.276 279.818 228.615C279.944 228.954 280.007 229.317 280.003 229.682C279.999 230.047 279.929 230.408 279.796 230.744L279.808 230.757Z" fill="#263238"/>
<path d="M264.333 331.138C264.333 339.19 263.624 347.618 266.746 353.536C269.868 359.455 284.013 371.64 299.936 368.741C310.336 366.849 343.961 353.026 343.961 353.026C343.961 353.026 358.889 347.108 358.989 342.894C359.088 336.668 358.69 327.918 345.64 328.293C333.748 328.629 298.456 334.869 298.456 334.869L264.333 331.138Z" fill="#BA68C8"/>
<path opacity="0.5" d="M264.333 331.138C264.333 339.19 263.624 347.618 266.746 353.536C269.868 359.455 284.013 371.64 299.936 368.741C310.336 366.849 343.961 353.026 343.961 353.026C343.961 353.026 358.889 347.108 358.989 342.894C359.088 336.668 358.69 327.918 345.64 328.293C333.748 328.629 298.456 334.869 298.456 334.869L264.333 331.138Z" fill="black"/>
<path d="M267.107 278.935C268.351 274.721 273.327 270.131 278.303 271.124C287.421 272.949 297.398 276.143 300.035 276.975C300.035 276.975 298.791 298.662 309.154 305.157L310.51 332.762C310.51 332.762 307.96 338.251 304.029 340.962C299.762 343.874 293.84 348.262 283.129 347.296C279.424 346.981 275.822 345.823 272.561 343.899C269.3 341.974 266.453 339.327 264.208 336.131C264.208 336.131 264.333 310.042 264.743 298.367C265.116 288.517 266.223 281.833 267.107 278.935Z" fill="#BA68C8"/>
<path opacity="0.2" d="M267.107 278.935C268.351 274.721 273.327 270.131 278.303 271.124C287.421 272.949 297.398 276.143 300.035 276.975C300.035 276.975 298.791 298.662 309.154 305.157L310.51 332.762C310.51 332.762 307.96 338.251 304.029 340.962C299.762 343.874 293.84 348.262 283.129 347.296C279.424 346.981 275.822 345.823 272.561 343.899C269.3 341.974 266.453 339.327 264.208 336.131C264.208 336.131 264.333 310.042 264.743 298.367C265.116 288.517 266.223 281.833 267.107 278.935Z" fill="black"/>
<path d="M309.44 310.566C309.44 310.566 304.054 304.54 302.163 297.548C302.163 297.548 302.163 307.774 309.552 313.303L309.44 310.566Z" fill="#BA68C8"/>
<path opacity="0.4" d="M309.44 310.566C309.44 310.566 304.054 304.54 302.163 297.548C302.163 297.548 302.163 307.774 309.552 313.303L309.44 310.566Z" fill="black"/>
<path d="M344.857 290.758L350.641 281.793C350.641 281.793 352.022 279.633 352.532 278.733C353.042 277.834 353.391 274.828 351.686 274.063C348.601 272.721 342.182 269.406 340.304 269.393C339.532 269.393 336.31 275.217 330.787 283.068C327.478 287.765 322.913 294.287 322.913 294.864C322.913 295.441 321.731 296.032 326.533 298.676C329.975 300.498 333.538 302.041 337.194 303.292L344.857 290.758Z" fill="#BA68C8"/>
<path opacity="0.6" d="M344.857 290.758L350.641 281.793C350.641 281.793 352.022 279.633 352.532 278.733C353.042 277.834 353.391 274.828 351.686 274.063C348.601 272.721 342.182 269.406 340.304 269.393C339.532 269.393 336.31 275.217 330.787 283.068C327.478 287.765 322.913 294.287 322.913 294.864C322.913 295.441 321.731 296.032 326.533 298.676C329.975 300.498 333.538 302.041 337.194 303.292L344.857 290.758Z" fill="black"/>
<path d="M348.539 281.028C344.994 286.53 337.43 300.138 337.206 300.514C336.982 300.89 326.01 295.777 323.062 294.395C322.989 294.541 322.938 294.7 322.913 294.864C322.913 295.428 321.731 296.032 326.533 298.676C329.975 300.498 333.538 302.041 337.194 303.292L344.857 290.758L350.641 281.793C350.641 281.793 352.022 279.633 352.532 278.733C353.042 277.834 353.391 274.828 351.686 274.063C352.022 274.251 352.072 275.526 348.539 281.028Z" fill="#263238"/>
<path d="M339.184 272.252L350.131 277.043L337.915 297.186L327.005 292.14L339.184 272.252Z" fill="#BA68C8"/>
<path opacity="0.8" d="M339.184 272.252L350.131 277.043L337.915 297.186L327.005 292.14L339.184 272.252Z" fill="white"/>
<path d="M300.06 276.975C305.683 278.801 309.117 279.136 315.337 289.456C321.557 299.776 335.178 320.242 336.485 322.711C338.363 326.133 339.172 330.199 337.554 333.353C336.037 336.278 331.633 335.004 325.463 329.152C319.492 323.503 307.674 307.533 307.674 307.533C303.781 297.797 301.216 287.505 300.06 276.975Z" fill="#FFA8A7"/>
<path d="M336.223 334.869C339.072 333.984 343.364 322.563 346.648 309.613C349.932 296.662 351.624 293.777 351.624 289.698C351.624 285.618 351.45 280.411 351.45 280.411L345.827 289.147C345.601 287.434 345.122 285.772 344.409 284.222C343.687 282.625 342.331 281.377 341.224 282.33C340.627 282.84 342.195 285.014 341.859 289.939C341.759 291.901 341.872 293.869 342.195 295.804L331.72 323.154L336.223 334.869Z" fill="#FFA8A7"/>
<path d="M300.06 276.975C302.851 277.614 305.576 278.549 308.196 279.767C310.725 280.84 312.875 282.747 314.341 285.215C318.695 293.012 324.915 304.111 324.915 304.111C324.915 304.111 325.985 313.773 315.1 317.155L309.303 310.445C306.935 307.712 304.99 304.586 303.543 301.185C301.093 295.334 298.294 286.101 300.06 276.975Z" fill="#BA68C8"/>
<path opacity="0.2" d="M300.06 276.975C302.851 277.614 305.576 278.549 308.196 279.767C310.725 280.84 312.875 282.747 314.341 285.215C318.695 293.012 324.915 304.111 324.915 304.111C324.915 304.111 325.985 313.773 315.1 317.155L309.303 310.445C306.935 307.712 304.99 304.586 303.543 301.185C301.093 295.334 298.294 286.101 300.06 276.975Z" fill="black"/>
<path d="M314.727 148.881L198.649 76.588C195.726 74.7628 193.3 75.8901 192.815 79.0707C193.086 77.0732 193.746 75.1602 194.751 73.4578C195.757 71.7553 197.085 70.302 198.649 69.1935L203.476 66.174C205.313 65.1685 207.344 64.6444 209.404 64.6444C211.464 64.6444 213.495 65.1685 215.331 66.174L331.422 138.468C333.168 139.655 334.61 141.298 335.614 143.245L318.919 153.646C317.925 151.695 316.481 150.054 314.727 148.881Z" fill="#37474F"/>
<path d="M337.343 446.604C337.232 448.824 336.637 450.983 335.606 452.907C334.575 454.831 333.137 456.465 331.409 457.676L326.582 460.722C324.91 461.627 323.079 462.14 321.209 462.228C319.34 462.316 317.474 461.977 315.735 461.232C318.534 462.373 320.711 460.668 320.711 457.018V159.953C320.636 157.729 320.037 155.563 318.969 153.659L335.664 143.259C336.726 145.169 337.321 147.339 337.393 149.566L337.343 446.604Z" fill="#263238"/>
<path d="M314.727 148.881L198.649 76.5879C195.378 74.5481 192.728 76.1988 192.728 80.2784V377.317C192.84 379.534 193.435 381.692 194.463 383.615C195.492 385.539 196.926 387.174 198.649 388.388L314.727 460.722C318.011 462.748 320.648 461.098 320.648 457.018V159.953C320.539 157.735 319.946 155.576 318.917 153.652C317.888 151.728 316.452 150.094 314.727 148.881ZM315.088 414.906C315.088 417.362 313.508 418.355 311.53 417.12L201.846 348.799C200.799 348.068 199.929 347.078 199.308 345.911C198.687 344.744 198.333 343.433 198.276 342.089V122.364C198.276 119.908 199.869 118.915 201.846 120.149L206.213 122.833L311.53 188.444C312.576 189.176 313.444 190.166 314.063 191.333C314.682 192.501 315.033 193.81 315.088 195.154V414.906Z" fill="#455A64"/>
<path d="M256.682 124.001C257.291 124.425 257.798 124.999 258.161 125.675C258.525 126.352 258.734 127.112 258.772 127.893C258.772 129.329 257.839 129.919 256.682 129.235C256.077 128.808 255.573 128.233 255.212 127.557C254.851 126.88 254.643 126.122 254.604 125.343C254.604 123.88 255.538 123.276 256.682 124.001Z" fill="#263238"/>
<path d="M256.682 393.515C259.072 395.207 261.059 397.482 262.483 400.156C263.907 402.83 264.728 405.828 264.88 408.907C264.88 414.571 261.148 416.879 256.645 414.034C254.249 412.348 252.255 410.077 250.824 407.405C249.393 404.733 248.566 401.736 248.409 398.655C248.447 392.978 252.141 390.683 256.682 393.515Z" fill="#263238"/>
<path d="M276.387 146.869C277.601 147.721 278.612 148.87 279.338 150.222C280.064 151.574 280.485 153.092 280.567 154.652C280.567 157.524 278.688 158.678 276.387 157.256C275.174 156.4 274.164 155.249 273.44 153.894C272.716 152.539 272.298 151.02 272.22 149.459C272.22 146.587 274.086 145.433 276.387 146.869Z" fill="#263238"/>
<path d="M266.186 145.889C266.186 147.808 264.868 148.573 263.225 147.513L235.783 130.416C234.928 129.839 234.213 129.052 233.696 128.118C233.179 127.185 232.875 126.133 232.81 125.048C232.81 123.129 234.141 122.364 235.783 123.424L263.225 140.521C264.079 141.097 264.793 141.885 265.308 142.818C265.823 143.752 266.124 144.805 266.186 145.889Z" fill="#263238"/>
<path d="M214.971 128.322L201.834 120.149C199.869 118.915 198.276 119.908 198.276 122.364V342.156C198.334 343.499 198.687 344.807 199.305 345.974C199.924 347.141 200.791 348.132 201.834 348.866L214.971 357.053V128.322Z" fill="#263238"/>
<g opacity="0.15">
<path d="M315.088 195.113V391.622L206.213 323.838V122.86L311.53 188.47C312.567 189.196 313.43 190.176 314.049 191.331C314.667 192.485 315.023 193.782 315.088 195.113Z" fill="white"/>
</g>
<path d="M206.897 124.148L311.194 189.115C312.121 189.78 312.893 190.668 313.45 191.708C314.007 192.749 314.333 193.914 314.404 195.113V390.348L206.897 323.395V124.148ZM206.213 122.806V323.838L315.088 391.636V195.113C315.033 193.77 314.682 192.46 314.063 191.293C313.444 190.126 312.576 189.135 311.53 188.403L206.213 122.793V122.806Z" fill="white"/>
<path d="M315.1 414.906V398.561L214.971 336.198L199.321 345.927C199.909 347.099 200.766 348.087 201.809 348.799L311.518 417.121C313.495 418.355 315.1 417.362 315.1 414.906Z" fill="#37474F"/>
<path d="M315.1 405.485L281.724 426.273V419.348L315.1 398.561V405.485Z" fill="#BA68C8"/>
<path opacity="0.2" d="M315.1 405.485L281.724 426.273V419.348L315.1 398.561V405.485Z" fill="black"/>
<path d="M176.034 353.523L281.724 419.348V426.273L176.034 360.448V353.523Z" fill="#BA68C8"/>
<path opacity="0.2" d="M176.034 353.523L281.724 419.348V426.273L176.034 360.448V353.523Z" fill="black"/>
<path d="M214.971 329.26L176.034 353.523L281.724 419.348L315.1 398.561V391.623L214.971 329.26Z" fill="#BA68C8"/>
<path d="M214.971 329.26L176.034 353.523L281.724 419.348L315.1 398.561V391.623L214.971 329.26Z" fill="#BA68C8"/>
<path d="M215.941 274.452C212.632 274.452 210.107 274.667 203.999 284.222C198.824 292.274 181.893 317.531 180.885 318.725C179.877 319.919 188.523 324.174 188.523 324.174L211.388 299.387L215.941 274.452Z" fill="#FFA8A7"/>
<path d="M184.319 316.685C184.319 316.685 186.135 315.638 190.725 315.679C193.574 315.679 195.353 315.893 195.701 314.9C196.161 313.411 197.281 310.673 197.866 310.686V317.974L184.319 316.685Z" fill="#F28F8F"/>
<path d="M176.282 425.924C168.632 436.821 162.66 439.344 160.571 441.706C158.481 444.068 159.687 448.724 164.8 449.758C169.913 450.791 175.449 449.53 178.745 445.973C182.042 442.417 184.319 437.787 187.677 435.237C191.036 432.688 192.765 431.963 193.275 428.903C193.785 425.843 191.223 416.745 191.223 416.745L176.282 425.924Z" fill="#263238"/>
<path d="M179.952 409.31C180.661 413.269 181.457 416.731 178.957 421.495C178.145 423.026 177.252 424.505 176.282 425.924C171.816 432.406 168.184 437.465 167.574 438.351C166.965 439.237 170.722 442.055 175.038 440.122C179.355 438.19 183.075 431.292 185.886 427.132C187.13 425.28 188.374 423.602 189.344 422.301C190.659 420.569 191.34 418.378 191.26 416.141L191.024 409.82L179.952 409.31Z" fill="#FFA8A7"/>
<path d="M194.905 441.411C187.254 452.321 181.283 454.831 179.193 457.206C177.103 459.581 178.322 464.211 183.423 465.258C188.523 466.305 194.071 465.016 197.368 461.474C200.665 457.931 202.941 453.274 206.312 450.738C209.684 448.201 211.4 447.45 211.898 444.39C212.396 441.33 209.858 432.231 209.858 432.231L194.905 441.411Z" fill="#263238"/>
<path d="M198.575 424.797C199.296 428.756 200.08 432.218 197.58 436.982C196.774 438.516 195.88 439.995 194.905 441.411C190.439 447.892 186.807 452.952 186.197 453.837C185.587 454.723 189.344 457.555 193.661 455.622C197.978 453.69 201.697 446.792 204.509 442.632C205.753 440.78 206.997 439.089 207.967 437.801C209.28 436.063 209.961 433.868 209.883 431.627L209.659 425.307L198.575 424.797Z" fill="#FFA8A7"/>
<path d="M248.459 327.864C254.318 340.855 252.005 353.724 236.168 362.152C227.324 366.862 210.206 375.183 210.206 375.183C210.206 375.183 212.694 382.564 212.781 395.004C212.868 405.955 210.169 429.775 210.169 429.775C210.169 429.775 203.551 433.09 198.811 429.775C198.811 429.775 196.709 415.013 195.079 400.131C193.101 381.437 191.434 370.446 192.317 366.42C193.101 362.863 199.993 357.656 205.255 353.671L186.894 362.984C186.894 362.984 190.837 368.862 191.77 379.45C192.902 392.253 191.472 414.262 191.472 414.262C189.716 415.188 187.801 415.711 185.848 415.799C183.896 415.887 181.947 415.537 180.126 414.772C180.126 414.772 167.201 360.488 169.142 352.959C171.928 342.156 210.069 325.703 212.01 321.463L248.459 327.864Z" fill="#BA68C8"/>
<path opacity="0.2" d="M248.459 327.864C254.318 340.855 252.005 353.724 236.168 362.152C227.324 366.862 210.206 375.183 210.206 375.183C210.206 375.183 212.694 382.564 212.781 395.004C212.868 405.955 210.169 429.775 210.169 429.775C210.169 429.775 203.551 433.09 198.811 429.775C198.811 429.775 196.709 415.013 195.079 400.131C193.101 381.437 191.434 370.446 192.317 366.42C193.101 362.863 199.993 357.656 205.255 353.671L186.894 362.984C186.894 362.984 190.837 368.862 191.77 379.45C192.902 392.253 191.472 414.262 191.472 414.262C189.716 415.188 187.801 415.711 185.848 415.799C183.896 415.887 181.947 415.537 180.126 414.772C180.126 414.772 167.201 360.488 169.142 352.959C171.928 342.156 210.069 325.703 212.01 321.463L248.459 327.864Z" fill="black"/>
<path d="M235.447 274.479C247.389 275.687 249.293 273.62 252.863 284.061L241.916 314.162L248.459 327.864C246.917 330.347 228.68 340.922 212.657 328.307C209.845 317.266 207.602 306.066 205.939 294.757C204.695 285.242 212.508 274.748 216.376 274.332C217.772 274.153 219.176 274.068 220.581 274.077L235.447 274.479Z" fill="#BA68C8"/>
<path opacity="0.6" d="M235.447 274.479C247.389 275.687 249.293 273.62 252.863 284.061L241.916 314.162L248.459 327.864C246.917 330.347 228.68 340.922 212.657 328.307C209.845 317.266 207.602 306.066 205.939 294.757C204.695 285.242 212.508 274.748 216.376 274.332C217.772 274.153 219.176 274.068 220.581 274.077L235.447 274.479Z" fill="white"/>
<path d="M193.81 316.658C196.298 316.739 196.199 315.021 196.821 313.344C197.555 311.371 198.226 309.613 198.226 309.613L199.869 316.001L202.12 327.837C202.12 327.837 195.515 327.743 190.663 327.837C185.811 327.931 180.3 326.187 179.741 322.469C179.392 320.161 180.985 316.927 185.961 316.417C188.579 316.28 191.203 316.361 193.81 316.658Z" fill="#FFA8A7"/>
<path d="M198.488 301.547C196 302.487 196.647 306.983 197.692 312.015C198.736 317.048 200.466 325.502 201.001 327.73C201.535 329.958 202.245 331.34 205.33 331.34C208.415 331.34 213.441 331.702 215.618 331.34C217.795 330.977 218.106 328.897 217.658 324.16C217.133 318.753 216.352 313.378 215.319 308.056C214.448 303.56 213.913 301.172 211.326 301.172C208.315 301.131 201.1 300.568 198.488 301.547Z" fill="#263238"/>
<path d="M198.326 315.142C198.575 316.323 200.814 317.302 202.854 317.396C205.807 317.521 208.764 317.305 211.674 316.752C213.752 316.148 215.07 320.013 213.067 323.543C211.065 327.072 206.536 328.146 201.013 327.824C199.355 326.062 198.257 323.779 197.878 321.302C197.711 319.236 197.863 317.154 198.326 315.142Z" fill="#FFA8A7"/>
<path d="M241.966 314.162C241.966 314.162 240.722 316.39 236.853 316.39C240.274 313.88 243.247 308.915 246.033 302.97L241.966 314.162Z" fill="#BA68C8"/>
<path opacity="0.1" d="M241.966 314.162C241.966 314.162 240.722 316.39 236.853 316.39C240.274 313.88 243.247 308.915 246.033 302.97L241.966 314.162Z" fill="white"/>
<path d="M247.377 275.835C253.97 277.177 256.719 283.887 256.918 297.038C257.117 310.19 255.55 353.778 255.413 355.711C255.272 357.192 255.498 358.687 256.069 360.043C256.639 361.399 257.533 362.567 258.66 363.427C263.362 367.05 269.035 369.963 271.809 371.989C275.466 374.673 271.809 379.048 267.318 379.343C263.113 379.625 256.383 375.693 254.667 374.15C255.517 375.368 256.177 376.728 256.62 378.176C257.354 381.262 256.62 383.074 255.301 382.43C254.555 382.067 253.647 380.846 251.072 377.451C246.606 371.533 245.648 368.876 245.598 361.521C245.598 356.543 245.212 330.87 244.839 321.1C244.603 315.115 244.653 302.111 244.752 294.032C244.852 285.953 245.996 276.975 247.377 275.835Z" fill="#FFA8A7"/>
<path d="M206.511 250.028C206.511 250.028 202.319 242.808 205.267 235.87C208.216 228.932 220.27 219.873 234.016 226.315C247.078 232.448 245.921 248.659 245.971 256C246.058 262.952 206.511 250.028 206.511 250.028Z" fill="#263238"/>
<path d="M210.343 235.441C212.246 231.415 224.338 224.986 235.833 231.28C247.327 237.574 245.996 254.524 245.996 266.172V287.644C245.996 290.704 239.341 294.918 232.946 292.476L233.407 261.113C233.407 261.113 235.198 241.963 229.675 237.373C224.151 232.783 210.343 235.441 210.343 235.441Z" fill="#263238"/>
<path d="M233.407 252.283C234.153 252.766 235.223 251.209 236.144 250.162C237.064 249.115 240.087 247.706 241.58 251.115C243.073 254.524 239.639 259.234 237.599 260.764C237.029 261.299 236.315 261.626 235.562 261.696C234.808 261.766 234.054 261.576 233.407 261.153L233.208 274.385C233.208 274.385 230.185 281.552 222.945 282.612C215.705 283.672 217.185 277.244 219.561 274.063V269.219C217.751 269.636 215.89 269.735 214.05 269.514C213.105 269.245 210.841 266.306 209.385 263.019C207.756 259.315 205.031 252.752 207.457 241.654C210.057 229.737 221.925 229.375 229.015 234.179C236.106 238.983 233.407 252.283 233.407 252.283Z" fill="#FFA8A7"/>
<path d="M219.573 269.219C219.573 269.219 226.291 267.756 228.63 266.414C230.013 265.642 231.145 264.434 231.877 262.952C231.519 264.413 230.893 265.782 230.036 266.978C228.319 269.339 219.573 271.084 219.573 271.084V269.219Z" fill="#F28F8F"/>
<path d="M219.648 251.974C219.658 252.261 219.746 252.539 219.901 252.773C220.057 253.006 220.273 253.186 220.522 253.288C220.771 253.39 221.042 253.41 221.302 253.347C221.562 253.283 221.799 253.139 221.983 252.931C222.168 252.723 222.291 252.461 222.338 252.178C222.385 251.895 222.354 251.603 222.248 251.339C222.142 251.076 221.966 250.851 221.743 250.694C221.52 250.537 221.258 250.455 220.992 250.457C220.811 250.461 220.633 250.503 220.467 250.581C220.301 250.66 220.152 250.772 220.027 250.913C219.902 251.054 219.804 251.221 219.739 251.403C219.674 251.585 219.643 251.779 219.648 251.974Z" fill="#263238"/>
<path d="M221.079 246.485L223.952 248.203C224.156 247.777 224.199 247.283 224.074 246.823C223.949 246.364 223.665 245.973 223.281 245.734C223.091 245.623 222.883 245.554 222.668 245.532C222.454 245.51 222.237 245.535 222.032 245.605C221.826 245.675 221.636 245.789 221.472 245.94C221.308 246.092 221.175 246.277 221.079 246.485Z" fill="#263238"/>
<path d="M235.795 223.523L236.579 228.65C237.224 228.528 237.798 228.138 238.178 227.562C238.557 226.987 238.711 226.274 238.607 225.577C238.552 225.24 238.435 224.919 238.262 224.632C238.09 224.346 237.866 224.099 237.604 223.908C237.342 223.716 237.046 223.584 236.736 223.518C236.425 223.452 236.105 223.454 235.795 223.523Z" fill="#263238"/>
<path d="M241.543 226.06L237.139 228.127C237.41 228.763 237.902 229.26 238.509 229.511C239.116 229.762 239.789 229.747 240.386 229.469C240.673 229.331 240.931 229.133 241.146 228.886C241.361 228.639 241.527 228.347 241.635 228.029C241.743 227.711 241.79 227.373 241.774 227.034C241.759 226.696 241.68 226.365 241.543 226.06Z" fill="#263238"/>
<path d="M220.569 260.938L217.496 262.187C217.562 262.41 217.669 262.617 217.811 262.795C217.953 262.973 218.127 263.117 218.322 263.22C218.518 263.323 218.73 263.382 218.948 263.394C219.165 263.405 219.382 263.369 219.586 263.287C219.998 263.107 220.331 262.763 220.514 262.325C220.697 261.888 220.716 261.391 220.569 260.938Z" fill="#F28F8F"/>
<path d="M207.656 247.706L210.281 245.519C210.156 245.328 209.997 245.167 209.813 245.044C209.629 244.921 209.424 244.84 209.211 244.805C208.997 244.77 208.779 244.782 208.569 244.84C208.36 244.898 208.163 245.001 207.992 245.143C207.642 245.443 207.412 245.875 207.349 246.352C207.287 246.829 207.397 247.314 207.656 247.706Z" fill="#263238"/>
<path d="M208.465 251.558C208.477 251.841 208.566 252.115 208.721 252.344C208.875 252.573 209.089 252.749 209.336 252.848C209.582 252.948 209.85 252.967 210.106 252.904C210.363 252.84 210.596 252.697 210.778 252.492C210.96 252.287 211.082 252.029 211.129 251.75C211.176 251.471 211.146 251.183 211.042 250.922C210.939 250.661 210.767 250.438 210.548 250.282C210.328 250.125 210.071 250.042 209.808 250.042C209.444 250.052 209.099 250.217 208.847 250.501C208.595 250.785 208.458 251.165 208.465 251.558Z" fill="#263238"/>
<path d="M214.063 250.9L215.157 259.556L210.729 258.885L214.063 250.9Z" fill="#F28F8F"/>
<path d="M210.281 234.152C210.281 234.152 216.364 248.203 234.489 246.23C234.489 246.23 236.579 236.434 229.426 232.649C222.273 228.865 213.714 228.65 210.281 234.152Z" fill="#263238"/>
<path d="M229.003 244.472C231.13 244.767 231.752 248.27 231.23 251.182C230.707 254.094 233.27 254.336 235.273 251.182C236.561 248.766 237.291 246.05 237.4 243.264L229.003 244.472Z" fill="#263238"/>
<path d="M205.305 353.711C205.305 353.711 216.352 345.659 219.573 344.062C219.573 344.062 213.353 342.72 210.343 338.318C210.849 340.402 211.737 342.355 212.955 344.062L186.943 363.024L205.305 353.711Z" fill="#BA68C8"/>
<path opacity="0.4" d="M205.305 353.711C205.305 353.711 216.352 345.659 219.573 344.062C219.573 344.062 213.353 342.72 210.343 338.318C210.849 340.402 211.737 342.355 212.955 344.062L186.943 363.024L205.305 353.711Z" fill="black"/>
<path d="M461.73 233.508L385.399 185.974C383.433 184.753 381.841 185.733 381.841 188.189V304.043C381.9 305.386 382.253 306.694 382.871 307.86C383.49 309.027 384.356 310.018 385.399 310.753L461.73 358.287C463.696 359.508 465.288 358.515 465.288 356.073V240.151C465.221 238.82 464.864 237.525 464.245 236.371C463.627 235.216 462.766 234.236 461.73 233.508Z" fill="#E0E0E0"/>
<path d="M363.156 282.974L387.402 298.085V277.297L363.678 280.25C361.427 280.532 361.19 281.753 363.156 282.974Z" fill="#E0E0E0"/>
<path d="M395.935 209.848L451.194 244.271C452.048 244.847 452.761 245.635 453.276 246.568C453.791 247.502 454.092 248.554 454.155 249.639C454.155 251.544 452.836 252.323 451.194 251.249L395.935 216.84C395.083 216.262 394.37 215.474 393.856 214.541C393.341 213.608 393.039 212.556 392.975 211.472C393.012 209.553 394.256 208.829 395.935 209.848Z" fill="#F0F0F0"/>
<path d="M395.911 230.623L451.169 265.045C452.024 265.621 452.739 266.409 453.256 267.342C453.773 268.275 454.077 269.328 454.142 270.413C454.142 272.319 452.811 273.097 451.169 272.023L395.911 237.614C395.06 237.034 394.349 236.245 393.835 235.313C393.32 234.38 393.017 233.329 392.95 232.246C393.012 230.327 394.256 229.603 395.911 230.623Z" fill="#F0F0F0"/>
<path d="M395.935 251.37L451.194 285.792C452.039 286.362 452.748 287.139 453.263 288.06C453.777 288.981 454.083 290.021 454.155 291.093C454.155 293.012 452.836 293.777 451.194 292.717L395.935 258.348C395.09 257.779 394.381 257.002 393.867 256.08C393.352 255.159 393.047 254.12 392.975 253.047C393.012 251.128 394.256 250.404 395.935 251.37Z" fill="#F0F0F0"/>
<path d="M395.935 272.211L451.194 306.62C452.046 307.198 452.759 307.986 453.274 308.919C453.788 309.853 454.09 310.904 454.155 311.988C454.155 313.907 452.836 314.672 451.194 313.612L395.935 279.19C395.082 278.613 394.368 277.826 393.853 276.892C393.338 275.959 393.037 274.906 392.975 273.822C393.012 271.916 394.256 271.191 395.935 272.211Z" fill="#F0F0F0"/>
<path d="M395.935 292.972L451.194 327.394C452.048 327.971 452.761 328.758 453.276 329.692C453.791 330.625 454.092 331.678 454.155 332.762C454.155 334.668 452.836 335.446 451.194 334.373L395.935 299.964C395.083 299.386 394.37 298.598 393.856 297.665C393.341 296.731 393.039 295.68 392.975 294.596C393.012 292.704 394.256 291.979 395.935 292.972Z" fill="#F0F0F0"/>
<path d="M387.402 94.6378V148.13C387.463 149.472 387.818 150.778 388.436 151.944C389.054 153.11 389.919 154.102 390.959 154.84L450.597 191.973C452.562 193.208 454.155 192.215 454.155 189.759V136.213C454.096 134.871 453.743 133.563 453.124 132.396C452.506 131.23 451.64 130.238 450.597 129.503L390.959 92.3698C389.006 91.2023 387.402 92.182 387.402 94.6378Z" fill="#F0F0F0"/>
<path d="M369.836 118.512L393.012 121.397V142.185L368.829 121.196C368.564 121.009 368.368 120.728 368.274 120.402C368.179 120.076 368.193 119.724 368.312 119.408C368.43 119.091 368.647 118.829 368.925 118.666C369.203 118.502 369.525 118.448 369.836 118.512Z" fill="#F0F0F0"/>
<path d="M454.155 121.384C456.585 123.092 458.608 125.394 460.058 128.103C461.508 130.813 462.346 133.854 462.502 136.978C462.502 142.722 458.77 145.03 454.155 142.171C451.724 140.461 449.701 138.156 448.251 135.444C446.801 132.733 445.964 129.69 445.807 126.564C445.807 120.847 449.552 118.512 454.155 121.384Z" fill="#BA68C8"/>
<path opacity="0.7" d="M454.155 121.384C456.585 123.092 458.608 125.394 460.058 128.103C461.508 130.813 462.346 133.854 462.502 136.978C462.502 142.722 458.77 145.03 454.155 142.171C451.724 140.461 449.701 138.156 448.251 135.444C446.801 132.733 445.964 129.69 445.807 126.564C445.807 120.847 449.552 118.512 454.155 121.384Z" fill="white"/>
<path d="M401.496 109.883L440.06 133.905C440.912 134.483 441.624 135.272 442.139 136.205C442.653 137.138 442.956 138.189 443.021 139.273C443.021 141.178 441.69 141.957 440.06 140.883L401.496 116.861C400.645 116.283 399.932 115.494 399.418 114.561C398.903 113.628 398.601 112.577 398.535 111.493C398.535 109.588 399.866 108.863 401.496 109.883Z" fill="#E6E6E6"/>
<path d="M401.496 126.698L440.06 150.72C440.912 151.299 441.624 152.087 442.139 153.02C442.653 153.953 442.956 155.005 443.021 156.088C443.021 157.994 441.69 158.772 440.06 157.698L401.496 133.677C400.645 133.098 399.932 132.31 399.418 131.377C398.903 130.443 398.601 129.392 398.535 128.309C398.535 126.403 399.866 125.678 401.496 126.698Z" fill="#E6E6E6"/>
<path d="M401.496 143.513L440.06 167.535C440.912 168.114 441.624 168.902 442.139 169.835C442.653 170.768 442.956 171.82 443.021 172.903C443.021 174.809 441.69 175.587 440.06 174.514L401.496 150.492C400.645 149.913 399.932 149.125 399.418 148.192C398.903 147.259 398.601 146.207 398.535 145.124C398.535 143.218 399.866 142.493 401.496 143.513Z" fill="#E6E6E6"/>
<path d="M150.221 164.14L73.9011 116.606C71.9356 115.385 70.3433 116.378 70.3433 118.821V234.729C70.4011 236.072 70.7538 237.38 71.3724 238.547C71.9909 239.713 72.8577 240.705 73.9011 241.439L150.221 288.946C152.186 290.167 153.778 289.174 153.778 286.732V170.85C153.721 169.507 153.368 168.199 152.749 167.032C152.131 165.866 151.264 164.874 150.221 164.14Z" fill="#E0E0E0"/>
<path d="M84.4254 140.548L139.684 174.956C140.538 175.533 141.254 176.32 141.771 177.254C142.288 178.187 142.591 179.24 142.657 180.324C142.657 182.244 141.326 183.008 139.684 181.948L84.4254 147.526C83.5738 146.947 82.8615 146.159 82.3469 145.226C81.8323 144.293 81.5299 143.241 81.4647 142.158C81.4647 140.252 82.7957 139.528 84.4254 140.548Z" fill="#F0F0F0"/>
<path d="M84.4129 161.322L139.671 195.731C140.523 196.309 141.235 197.098 141.75 198.031C142.265 198.964 142.567 200.015 142.632 201.099C142.632 203.018 141.301 203.783 139.671 202.709L84.4129 168.3C83.5593 167.724 82.8454 166.936 82.3305 166.003C81.8156 165.069 81.5145 164.016 81.4522 162.932C81.4522 161.027 82.7708 160.302 84.4129 161.322Z" fill="#F0F0F0"/>
<path d="M84.4254 182.109L139.684 216.478C140.538 217.054 141.254 217.842 141.771 218.775C142.288 219.708 142.591 220.761 142.657 221.846C142.657 223.752 141.326 224.53 139.684 223.456L84.4254 189.047C83.5752 188.467 82.864 187.678 82.3495 186.746C81.835 185.813 81.5319 184.762 81.4647 183.679C81.4647 181.814 82.7957 181.089 84.4254 182.109Z" fill="#F0F0F0"/>
<path d="M84.4254 202.897L139.684 237.319C140.531 237.888 141.242 238.665 141.758 239.586C142.275 240.507 142.583 241.547 142.657 242.62C142.657 244.539 141.326 245.304 139.684 244.244L84.4254 209.768C83.5819 209.196 82.8747 208.418 82.3605 207.497C81.8463 206.577 81.5394 205.539 81.4647 204.467C81.4647 202.602 82.7957 201.877 84.4254 202.897Z" fill="#F0F0F0"/>
<path d="M84.4254 223.698L139.684 258.08C140.538 258.656 141.254 259.444 141.771 260.377C142.288 261.311 142.591 262.363 142.657 263.448C142.657 265.354 141.326 266.132 139.684 265.058L84.4254 230.65C83.5738 230.071 82.8615 229.283 82.3469 228.35C81.8323 227.416 81.5299 226.365 81.4647 225.282C81.4647 223.403 82.7957 222.678 84.4254 223.698Z" fill="#F0F0F0"/>
<path d="M148.218 273.822L169.925 287.336C170.197 287.499 170.513 287.557 170.82 287.499C171.126 287.441 171.405 287.271 171.609 287.018C171.814 286.765 171.931 286.443 171.941 286.108C171.952 285.772 171.855 285.443 171.667 285.175L148.218 253.034V273.822Z" fill="#E0E0E0"/>
<path d="M14.7116 271.339V324.831C14.7704 326.173 15.1235 327.481 15.742 328.648C16.3605 329.814 17.2267 330.806 18.2694 331.541L77.9068 368.674C79.8723 369.895 81.4646 368.916 81.4646 366.46V312.914C81.4058 311.572 81.0527 310.264 80.4342 309.097C79.8157 307.931 78.9495 306.939 77.9068 306.204L18.2694 269.125C16.3039 267.89 14.7116 268.883 14.7116 271.339Z" fill="#F0F0F0"/>
<path d="M99.7639 352.543L75.9039 325.797V346.652L98.2959 355.04C98.6003 355.194 98.9465 355.224 99.2696 355.123C99.5927 355.022 99.8705 354.797 100.051 354.49C100.231 354.184 100.301 353.817 100.248 353.458C100.196 353.1 100.023 352.775 99.7639 352.543Z" fill="#F0F0F0"/>
<path d="M81.4647 298.085C83.895 299.793 85.9176 302.095 87.368 304.805C88.8184 307.514 89.6557 310.555 89.8119 313.679C89.8119 319.409 86.0799 321.731 81.4647 318.873C79.0357 317.163 77.0142 314.861 75.564 312.151C74.1137 309.442 73.2756 306.402 73.1174 303.279C73.1174 297.535 76.8619 295.213 81.4647 298.085Z" fill="#BA68C8"/>
<path opacity="0.7" d="M81.4647 298.085C83.895 299.793 85.9176 302.095 87.368 304.805C88.8184 307.514 89.6557 310.555 89.8119 313.679C89.8119 319.409 86.0799 321.731 81.4647 318.873C79.0357 317.163 77.0142 314.861 75.564 312.151C74.1137 309.442 73.2756 306.402 73.1174 303.279C73.1174 297.535 76.8619 295.213 81.4647 298.085Z" fill="white"/>
<path d="M28.8061 286.584L67.3701 310.606C68.2217 311.185 68.934 311.973 69.4486 312.906C69.9632 313.839 70.2656 314.89 70.3308 315.974C70.3308 317.879 68.9997 318.658 67.3577 317.584L28.7937 293.562C27.94 292.986 27.2261 292.198 26.7112 291.265C26.1963 290.331 25.8952 289.279 25.8329 288.194C25.8454 286.262 27.164 285.564 28.8061 286.584Z" fill="#E6E6E6"/>
<path d="M28.8061 303.399L67.3701 327.421C68.2217 328 68.934 328.788 69.4486 329.721C69.9632 330.654 70.2656 331.706 70.3308 332.789C70.3308 334.695 68.9997 335.473 67.3577 334.4L28.7937 310.378C27.94 309.801 27.2261 309.014 26.7112 308.08C26.1963 307.147 25.8952 306.094 25.8329 305.01C25.8454 303.104 27.164 302.366 28.8061 303.399Z" fill="#E6E6E6"/>
<path d="M28.8061 320.215L67.3701 344.236C68.2217 344.815 68.934 345.603 69.4486 346.536C69.9632 347.47 70.2656 348.521 70.3308 349.604C70.3308 351.51 68.9997 352.288 67.3577 351.215L28.7937 327.193C27.94 326.617 27.2261 325.829 26.7112 324.895C26.1963 323.962 25.8952 322.909 25.8329 321.825C25.8454 319.919 27.164 319.195 28.8061 320.215Z" fill="#E6E6E6"/>
<path d="M59.2095 21.888V75.3801C59.2673 76.7227 59.62 78.0312 60.2386 79.1978C60.8572 80.3644 61.7239 81.3558 62.7673 82.0901L122.405 119.237C124.37 120.458 125.963 119.465 125.963 117.009V63.49C125.905 62.1474 125.552 60.8389 124.933 59.6723C124.315 58.5057 123.448 57.5143 122.405 56.78L62.7673 19.6737C60.864 18.4525 59.2095 19.4456 59.2095 21.888Z" fill="#F0F0F0"/>
<path d="M144.212 103.106L120.352 76.3463V97.1339L142.744 105.521C143.036 105.644 143.359 105.655 143.658 105.552C143.957 105.449 144.213 105.238 144.385 104.955C144.557 104.672 144.634 104.334 144.603 103.997C144.571 103.661 144.433 103.346 144.212 103.106Z" fill="#F0F0F0"/>
<path d="M125.962 48.634C128.384 50.3477 130.396 52.6525 131.838 55.3618C133.28 58.071 134.109 61.1085 134.26 64.2281C134.26 69.9718 130.528 72.2801 125.913 69.4216C123.484 67.7123 121.462 65.4097 120.012 62.7005C118.562 59.9912 117.724 56.9515 117.565 53.8276C117.615 48.0972 121.36 45.7622 125.962 48.634Z" fill="#BA68C8"/>
<path opacity="0.7" d="M125.962 48.634C128.384 50.3477 130.396 52.6525 131.838 55.3618C133.28 58.071 134.109 61.1085 134.26 64.2281C134.26 69.9718 130.528 72.2801 125.913 69.4216C123.484 67.7123 121.462 65.4097 120.012 62.7005C118.562 59.9912 117.724 56.9515 117.565 53.8276C117.615 48.0972 121.36 45.7622 125.962 48.634Z" fill="white"/>
<path d="M73.304 37.1332L111.868 61.155C112.72 61.7337 113.432 62.5219 113.946 63.455C114.461 64.3881 114.763 65.4395 114.829 66.523C114.829 68.4286 113.498 69.207 111.868 68.1334L73.304 44.1116C72.4503 43.5352 71.7364 42.7476 71.2215 41.814C70.7066 40.8804 70.4055 39.8278 70.3433 38.7435C70.3433 36.8379 71.6619 36.1132 73.304 37.1332Z" fill="#E6E6E6"/>
<path d="M73.304 53.9483L111.868 77.9701C112.72 78.5489 113.432 79.3371 113.946 80.2702C114.461 81.2033 114.763 82.2547 114.829 83.3381C114.829 85.2438 113.498 86.0221 111.868 84.9485L73.304 60.9267C72.4503 60.3504 71.7364 59.5628 71.2215 58.6292C70.7066 57.6956 70.4055 56.643 70.3433 55.5587C70.3433 53.6531 71.6619 52.9284 73.304 53.9483Z" fill="#E6E6E6"/>
<path d="M73.304 70.7636L111.868 94.7854C112.72 95.3642 113.432 96.1524 113.946 97.0855C114.461 98.0186 114.763 99.07 114.829 100.153C114.829 102.059 113.498 102.837 111.868 101.764L73.304 77.7421C72.4503 77.1657 71.7364 76.3781 71.2215 75.4445C70.7066 74.5109 70.4055 73.4583 70.3433 72.3741C70.3433 70.4684 71.6619 69.7437 73.304 70.7636Z" fill="#E6E6E6"/>
</svg>
