<svg width="35" height="35" viewBox="0 0 35 35" fill="none" xmlns="http://www.w3.org/2000/svg">
<mask id="mask0_365_881" style="mask-type:alpha" maskUnits="userSpaceOnUse" x="0" y="0" width="35" height="35">
<rect width="35" height="35" fill="#D9D9D9"/>
</mask>
<g mask="url(#mask0_365_881)">
<path d="M26.0902 22.9691C26.0902 25.4969 25.1868 27.6479 23.3802 29.4222C21.5735 31.1965 19.3832 32.0837 16.8093 32.0837C14.2353 32.0837 12.045 31.1965 10.2384 29.4222C8.43166 27.6479 7.52832 25.4969 7.52832 22.9691V9.47949C7.52832 7.65658 8.17799 6.1071 9.47732 4.83105C10.7766 3.55501 12.3544 2.91699 14.2106 2.91699C16.0668 2.91699 17.6445 3.55501 18.9439 4.83105C20.2432 6.1071 20.8929 7.65658 20.8929 9.47949V22.2399C20.8929 23.358 20.4969 24.3059 19.7049 25.0837C18.9129 25.8614 17.9477 26.2503 16.8093 26.2503C15.6708 26.2503 14.7056 25.8614 13.9136 25.0837C13.1216 24.3059 12.7256 23.358 12.7256 22.2399V8.75033H15.6955V22.2399C15.6955 22.5559 15.8007 22.8172 16.0111 23.0238C16.2215 23.2304 16.4875 23.3337 16.8093 23.3337C17.131 23.3337 17.397 23.2304 17.6074 23.0238C17.8178 22.8172 17.923 22.5559 17.923 22.2399V9.47949C17.8982 8.45866 17.5332 7.59581 16.8278 6.89095C16.1225 6.18609 15.2501 5.83366 14.2106 5.83366C13.1711 5.83366 12.2925 6.18609 11.5748 6.89095C10.8571 7.59581 10.4982 8.45866 10.4982 9.47949V22.9691C10.4735 24.6948 11.0798 26.1592 12.3173 27.3623C13.5547 28.5654 15.0521 29.167 16.8093 29.167C18.5417 29.167 20.0143 28.5654 21.227 27.3623C22.4397 26.1592 23.0708 24.6948 23.1203 22.9691V8.75033H26.0902V22.9691Z" fill="#616161"/>
</g>
</svg>
