<svg width="21" height="21" viewBox="0 0 21 21" fill="none" xmlns="http://www.w3.org/2000/svg"><g clip-path="url(#a)"><path d="M20.49 10.687c0-.82-.069-1.418-.216-2.038H10.7v3.699h5.62c-.113.919-.725 2.303-2.084 3.233l-.02.124 3.028 2.292.21.02c1.926-1.738 3.037-4.296 3.037-7.33" fill="#4285F4"/><path d="M10.698 20.431c2.754 0 5.065-.886 6.754-2.414l-3.218-2.436c-.861.587-2.017.997-3.536.997a6.13 6.13 0 0 1-5.801-4.141l-.12.01-3.148 2.38-.041.112c1.677 3.255 5.122 5.492 9.11 5.492" fill="#34A853"/><path d="M4.898 12.436a6 6 0 0 1-.34-1.97c0-.687.125-1.352.33-1.972l-.007-.132-3.187-2.419-.104.049a9.8 9.8 0 0 0-1.088 4.473A9.8 9.8 0 0 0 1.59 14.94z" fill="#FBBC05"/><path d="M10.698 4.353c1.915 0 3.207.809 3.944 1.484l2.878-2.746C15.752 1.485 13.452.5 10.698.5 6.71.5 3.265 2.737 1.588 5.992l3.297 2.503a6.15 6.15 0 0 1 5.813-4.142" fill="#EB4335"/></g><defs><clipPath id="a"><path fill="#fff" d="M.5.5h20v20H.5z"/></clipPath></defs></svg>