<svg width="22" height="22" viewBox="0 0 22 22" fill="none" xmlns="http://www.w3.org/2000/svg"><path d="M18.068 4.285c1.853 1.752 3.004 4.14 3.004 6.715 0 2.6-1.15 4.936-3.004 6.688a10.28 10.28 0 0 1-7.074 2.813 10.22 10.22 0 0 1-7.075-2.814C2.067 15.936.943 13.6.943 11c0-2.575 1.123-4.964 2.976-6.715a10.23 10.23 0 0 1 7.075-2.813 10.27 10.27 0 0 1 7.074 2.813m-5.924 12.076h.057c.085 0 .169.026.225.106.056.054.112.106.224.106.028 0 .057-.026.057-.08 0-.106.028-.212.028-.238.027-.08.084-.08.14-.08.028 0 .028 0 .028-.053l-.057-.054c-.028 0-.057.026-.057.053-.027.027-.056.054-.084 0l-.169.107-.197-.054-.337-.478.113-.69c0-.027-.028-.08-.113-.107-.084-.026-.084-.08-.056-.106a1 1 0 0 0-.421-.106c-.028 0-.113.026-.253.054-.14 0-.224 0-.224-.054 0-.08.084-.239.14-.425.028-.08.056-.212.084-.265 0-.054.028-.107.028-.107l.14-.318-.028-.053-.196-.027c-.057 0-.253.106-.394.212-.14.16-.252.293-.252.399l-.562.106c-.112 0-.224-.026-.309-.133a1.3 1.3 0 0 0-.224-.45.58.58 0 0 1-.14-.399c0-.16.027-.372.084-.504a.54.54 0 0 0-.057-.505c.028 0 .113-.053.057-.106l.14-.16.028-.026.028.027c.112-.08.309-.107.477-.08.197.026.309-.054.364-.186l.197.186c.057.026.17-.16.17-.213l-.085-.053.505-.106.028.053h.225l.281.16c.028 0 .057-.027.085-.054.056-.053.084-.053.112-.026l.252.266c-.028.053-.028.106-.028.16.028.026.057.053.057.08 0 .105.252.584.393.584q.127 0 .085-.16v-.212c0-.133-.028-.293-.085-.451-.084-.133-.14-.319-.196-.479v-.053c0-.08.056-.16.168-.212.085-.054.14-.107.14-.107.085-.053.17-.132.282-.186.084-.053.169-.185.224-.265l.085-.186v-.106h.084s.057-.027.057-.08c0 0-.028-.027-.057-.027-.028-.026-.112-.08-.169-.132l.057-.054c.084-.08.112-.265.057-.344l.224-.107c-.056.107.113.133.17.107l.111-.239c-.056-.132-.084 0 0-.16a1 1 0 0 0 .253-.106c.084-.026.14-.053.224-.053.028 0 .057.026.057.026a.13.13 0 0 0 .084-.026c0-.08-.027-.133-.056-.133l.14-.292a.31.31 0 0 0 .281-.16l.225-.026q.084 0 .084-.08v-.053l.421-.106.057-.133-.112-.16s.028-.026.028-.053-.028-.054-.057-.08c-.028 0-.057-.026-.084-.026-.028-.027-.057-.054-.085-.054h.225s.112-.026.112-.106c0-.106-.057-.132-.169-.132-.309 0-.786.106-.955.424l-.169.08.225-.212.028-.054q0-.04-.085-.08h-.084c.281 0 .449-.08.561-.16a.75.75 0 0 1 .365-.212c.197.027.394.027.59.027.168-.027.336-.027.533-.027a.8.8 0 0 0 .252-.265l.281-.027c.057.054.253-.08.253-.16s-.028-.106-.112-.132c-.085-.026-.17-.08-.17-.16v-.08c.029-.026 0-.053-.027-.053-.112 0-.394.133-.477.186-.057.054-.084-.026-.084-.08l.027.027.113-.054.28-.106.029-.026c0-.107-.17-.133-.225-.133a.5.5 0 0 0-.14.054c-.057 0-.112 0-.112-.054l.027-.053c-.196-.133-.364-.399-.364-.478v-.107c.028-.026 0-.026-.057-.026h-.084c-.028.026-.057 0-.057-.053 0-.054-.112-.345-.252-.345l-.085.08c0 .053-.028.08-.084.106q-.085.04-.085.08h-.027l-.282.16c0-.054-.027-.054-.056-.027-.028 0-.028.026-.085.026h-.056c.14 0 .112-.186 0-.186l-.225.027c-.056 0-.056 0 0-.054.028-.053.085-.106.028-.16 0-.053-.028-.053-.057-.026l.057-.08c.057-.026-.028-.132-.085-.186l-.252-.026-.169-.16c-.028.027-.056 0-.112-.026-.028-.026-.085-.08-.112-.08l-.197.08-.506-.106c-.056 0-.14.026-.14.106 0 .026 0 .053.028.053.056.027.056.054.056.08s.028.133.057.266c0 .133 0 .186-.084.16l-.113.16c0 .053.057.08.085.08a.8.8 0 0 1 .224.212c.057.053.057.132.028.212l-.533.398v.026c0 .08 0 .133.027.186.057.054.057.133.113.213.14.053.14.106.028.16a.4.4 0 0 0-.17.053l-.056.053c0 .027-.028.027-.056.027h-.14s0-.027.027-.027c0 0 .028-.026.028-.053l-.252-.133-.113-.186q.042-.119 0-.16c-.027-.026-.027-.079-.027-.132 0-.052-.057-.186-.17-.186-.14 0-.252.027-.393.054.057-.026-.056-.16-.084-.16q-.211 0-.506-.16c-.197-.106-.337-.16-.45-.16-.084 0-.252.027-.364.08.057-.026.057-.053.085-.132l-.17-.266-.027-.026q-.084 0-.17.08c-.056.026-.14 0-.14-.106 0-.027.029-.054.029-.054.027-.026.027-.026 0-.053 0-.08.027-.16.112-.239.056-.053.084-.16.112-.239.057-.026.057-.053.057-.08 0-.053.028-.053.056-.053.057 0 .14-.026.197-.053a.26.26 0 0 1 .197-.08l.028-.08q0-.04-.253-.08c-.196-.026-.28-.026-.28-.08l.027-.026c.169.053.309.08.393.08.17.026.253-.027.422-.106.056-.027.224-.08.364-.16 0-.026-.027-.026-.112-.054h.112l.197-.106v-.106l-.056-.053.28-.054c-.027-.053.029-.08.057-.08q.085 0 .17.08c.056.054.084.054.111.054l.253-.08c0-.027.028-.027.084-.027.057-.026.085-.053.057-.08l-.197-.185c-.056 0-.084-.08-.028-.08.085 0 .14-.026.085-.106-.057-.027-.14-.08-.225-.106a.47.47 0 0 0-.252-.08c-.057 0-.169.026-.169.106 0 .053.028.053.057.053.056 0 .084.027.084.054.057.026.028.053-.028.053h-.056c-.057 0-.14.054-.197.16a.5.5 0 0 1-.225.186c-.028 0-.028 0-.028-.026.028-.027 0-.027 0-.054-.027-.026-.056-.053-.084-.053-.057-.027-.112-.027-.112-.054 0-.053.056-.08.112-.16.028-.08-.057-.106-.197-.106a.15.15 0 0 0-.14.08.6.6 0 0 0-.084.133l-.282-.292-.224-.027c0-.053.028-.106.056-.16.057-.106-.168-.238-.252-.318-.028 0-.084-.026-.14-.026-.028 0-.197.132-.31.186q-.084.04-.084.08c0 .053.057.053.14.053h-.027c-.057 0-.085.026-.085.106 0 .027.225.08.281.08s.113 0 .113.026c.028.027.028.027.084.027l.085-.027v.054l-.028.053.028.08-.282.133-.027.026c-.028 0-.057 0-.057.026 0 .027 0 .08.057.133.027.053 0 .08-.14.08l-.085-.054c0-.053-.057-.106-.197-.16-.252-.08-.701-.106-1.095-.106-.196-.026-.337-.026-.449-.026l-.421.132.112.213a.3.3 0 0 0-.084.026c-.113-.08-.281-.239-.337-.239l-.197-.026c-.618.026-1.347.584-2.049 1.248-.702.663-1.32 1.406-1.629 1.858h.057c.057 0 .084-.026.169-.054.056-.026.084.027.084.107 0 .053 0 .08-.028.132-.027.053.028.08.14.08.028 0 .057-.026.057-.08.028-.053.028-.053.028 0l.057.186v.026c0 .027-.028.054-.057.08-.084.027 0 .106.084.106h.14l.057-.026.028-.026c0 .106.112.132.197.132h.028s-.028.054-.057.08c-.057 0-.057.026 0 .054l.281.053v.026l.17.345c0 .054-.057.186-.113.186s-.057-.026-.057-.053c.028 0 .028-.027.028-.08 0-.026-.028-.054-.028-.08-.028-.026-.084-.026-.197-.026-.027 0-.112 0-.056.08l.14.292.057.053c-.17 0-.197.53-.197.69l.028.213.028.08v.026l-.028.239.337.53h.084c0 .027 0 .054-.028.08s-.028.054-.028.107l.113.08c0 .159.056.185.196.318 0 .08.113.186.282.292.196.08.309.132.364.16.113.372.31.769.59 1.009l.027.16-.056.053c-.057 0-.057.026-.028.053l.225.106c.056-.053.084 0 .14.08.056.106.084.16.112.186v.08l.14.186.057.053.056-.132c-.056-.133-.252-.425-.421-.663a5 5 0 0 0-.252-.372q-.085-.12-.085-.16c0-.027-.028-.318-.056-.372.027.026.112.054.168.08.085.026.17.053.225.08a.8.8 0 0 0 .252.504c.113.106.225.239.31.399-.057.053.056.053.112.053.028.054.028.08.028.186.252.239.758.797.758 1.035v.027l-.057.16c.112.238.365.424.618.504h.057c.14.08.337.16.533.238q.254.16.506.239l.281-.16c.14.027.31.16.506.319.197.159.45.345.786.398.112-.08.169-.053.169.054v.053l.309.345.057.16c.168.106.364.265.449.45zm-3.62-13.35-.029-.053a1 1 0 0 0-.252-.08c-.028 0-.084.026-.197.054-.196.106-.505.186-.73.292a.7.7 0 0 1-.252.08.8.8 0 0 0 .336-.08.6.6 0 0 1 .31-.08l.084.053c.056.027.084.027.14.027.028 0 .057 0 .112.053.057-.026.113-.026.197.027l.084-.054v-.106L8.3 3.09l.056.027c.057 0 .113-.027.17-.106zm4.238 15.552.027.16c0 .053-.027.053-.056.106-.085.053-.225.132-.225.292 0 .026.028.054.028.106.028.027.057.054.057.106 0 .027-.028.054-.028.08 1.937-.318 3.678-1.194 5.025-2.547h-.028c-.056.026-.14.026-.169 0l-.084.026-.14-.026h-.085a.6.6 0 0 0-.197-.186l-.027-.027c-.028 0-.057 0-.057.054 0-.239-.197-.451-.421-.451 0 .026-.028.026-.028.026h-.057l-.056-.026h.084l.057-.16-.14-.08-.028.027a.35.35 0 0 1-.253-.186l-.084-.027v.027l-.057.026a1.3 1.3 0 0 0-.252.08.55.55 0 0 1-.225-.106l-.337.026c0-.106-.056-.239-.196-.239-.17 0-.394 0-.45.186a.27.27 0 0 0 .057.16v.106l-.028.053-.027.027h-.028l-.085-.186.085-.106c-.028-.054-.028-.08-.028-.133 0-.052-.028-.08-.028-.132l-.028-.027h-.084l-.17.107h-.112l-.027.053c-.028 0-.028.026-.028.054 0 0-.028 0-.028.026l-.028-.026h-.112a.5.5 0 0 0-.112.212l.056.053-.14.054-.028.053-.084.054v.026h-.028v.133h-.028c-.028-.106-.112-.213-.281-.292h-.085v.053c0 .054.057.08.113.106.056.054.084.106.112.133-.028-.027-.085 0-.085.026v.053l.17.24v.45l.056.106c-.057.133-.112.266-.197.345v-.026l-.056.026-.028.026-.028.107.028.026v.026l-.057-.053-.028.16-.14.053c-.056.026-.084.053-.056.132 0 .054-.028.08-.085.107l.028.053-.057.08c0 .026 0 .053-.027.053v.107l.027.186.057.026.057-.026z" fill="currentColor"/></svg>