<svg width="106" height="32" viewBox="0 0 106 32" fill="none" xmlns="http://www.w3.org/2000/svg"><path d="M8.031 19.469q.063.156.469.687.406.501.906 1.125l1.031 1.157q.5.562.688.812.594.874 1.219 1.719.624.844 1.187 1.75.157.157.25.406.094.219.094.469 0 .28-.156.312a.8.8 0 0 0-.281.063q-.313.219-.563.25-.25.03-.406.031-.345 0-.75-.031-.406 0-.688.062-.093.031-.219.094-.124.094-.187.094-.25 0-.375-.094a1.2 1.2 0 0 0-.281-.125 7 7 0 0 1-.469-.594 11 11 0 0 0-.406-.625 2.3 2.3 0 0 0-.406-.375 2.7 2.7 0 0 1-.407-.437 24 24 0 0 0-1.031-1.375 57 57 0 0 0-1.031-1.313 5.5 5.5 0 0 0-.563-.656 14 14 0 0 1-.531-.625 9 9 0 0 1-.469-.719 9 9 0 0 0-.468-.718 8 8 0 0 0-.532-.75 28 28 0 0 0-.719-.938q-.375-.468-.78-.875a5 5 0 0 0-.657-.656q0-.219-.125-.313a11 11 0 0 1-.281-.218 1.2 1.2 0 0 0-.157-.282.66.66 0 0 1-.093-.343q0-.126.031-.22l.063-.187A.5.5 0 0 0 1 15.813a1.2 1.2 0 0 1 .094-.25q.156-.406.437-.72.313-.312.469-.718a1 1 0 0 0 .031-.219q0-.124.063-.25.093-.187.281-.375.188-.187.344-.406l.312-.562.313-.563q.436-.719.969-1.375.53-.687 1-1.344.437-.625.812-1.219a21 21 0 0 1 1.313-1.937q.281-.405.562-.781.313-.376.625-.688.313-.344.625-.5.53-.062.688.188.156.218.437.218.438.095.594.282.156.188.312.343.406 0 .688.157.281.156.562.468a2.3 2.3 0 0 1-.344.625q-.187.282-.343.594a.7.7 0 0 0-.375.313.9.9 0 0 1-.313.375L10.47 8.53q-.345.5-.688.969-.156.188-.375.313a.75.75 0 0 0-.312.312.7.7 0 0 0-.094.219.8.8 0 0 1-.094.187q-.375.594-.844 1.156-.468.563-.812 1.188a2 2 0 0 0-.25.469 4 4 0 0 1-.219.437q-.125.188-.375.531-.219.345-.468.72-.22.343-.407.687-.156.312-.156.531.03.156.406.625.375.47.813 1 .468.531.875 1 .437.469.562.594" fill="#FF6F00"/><path d="m30.469 15.594-.125.25a.7.7 0 0 0-.094.219q.124.125.219.28a.4.4 0 0 1 .125.282q0 .125-.063.25a.3.3 0 0 0 0 .188 3 3 0 0 1-.281.406q-.125.187-.187.406a2 2 0 0 0-.22.25l-.124.25a.38.38 0 0 0-.219.219.4.4 0 0 1-.156.218q-.031.126-.313.594-.281.47-.625 1-.344.531-.656 1.032a9 9 0 0 1-.437.656.7.7 0 0 1-.157.25 5 5 0 0 1-.156.218.7.7 0 0 0-.094.22.4.4 0 0 1-.093.155.8.8 0 0 1-.157.22 1.4 1.4 0 0 0-.125.25q-.312.405-.625.968a18 18 0 0 1-.593 1l-.313.5a6 6 0 0 1-.281.5 9 9 0 0 1-.313.469 9 9 0 0 0-.312.468 1.9 1.9 0 0 0-.438.47q-.187.25-.437.437-.407 0-.5-.375-.407-.094-.407 0V28a.4.4 0 0 0-.187.188.28.28 0 0 1-.156.187 1.1 1.1 0 0 1-.438-.219q-.156-.124-.468-.093a1.4 1.4 0 0 0-.282-.313 4 4 0 0 1-.281-.312.8.8 0 0 0-.187-.313l-.188-.25a3 3 0 0 0-.187-.281l-.188-.25a12 12 0 0 0-.437-.532 8 8 0 0 1-.344-.562l-.5-.75a10 10 0 0 0-.469-.781l-.25-.375a4 4 0 0 1-.219-.375 3 3 0 0 0-.187-.375q-.094-.219-.25-.282a.67.67 0 0 0-.219-.375 2.2 2.2 0 0 1-.312-.312 5 5 0 0 1-.407-.531l-.375-.625a65 65 0 0 1-1.187-1.719A65 65 0 0 1 13.53 17q.156-.5.156-.75a.55.55 0 0 1 .157-.406q0-.126.062-.375.406-.688.781-1.25.345-.531.47-.875.155-.344.312-.719a.9.9 0 0 0 .25-.219q.093-.156.25-.281.062-.345.281-.562.22-.25.281-.594.282-.22.313-.5.405-.282.5-.75.25-.25.406-.563.188-.312.344-.656.375-.313.593-.812a.77.77 0 0 0 .282-.344 1.2 1.2 0 0 1 .25-.375q.249-.406.375-.657l.312-.562q.219 0 .282-.156t.25-.125q0-.282.156-.5a1 1 0 0 1 .187-.063q.125-.062.125-.125-.062-.375.032-.437.093-.063.156-.125.343.062.468.093.126.031.407.22.312-.001.437.124a.8.8 0 0 0 .282.188 1 1 0 0 1 .187.25.57.57 0 0 0 .25.187q.25.345.531.75.282.406.532.75.343.47.687.907.375.405.688.906.094.156.343.562.25.375.563.813t.562.812q.25.345.344.406.094.158.406.594.313.438.657.938.375.468.718.906.345.438.469.563.345.468.5.78.188.282.344.626m-7.157 5.875q.345-.47.532-.844l.375-.75q.312-.375.375-.531a2 2 0 0 1 .156-.313l.5-.75q.281-.375.438-.812a.8.8 0 0 0 .28-.313q.095-.188.282-.343-.187-.657-.437-1-.25-.375-.5-.72l-.188-.312-.187-.312a2 2 0 0 1-.22-.188 1.2 1.2 0 0 0-.155-.187 6 6 0 0 0-.188-.406 3 3 0 0 0-.25-.282 1.2 1.2 0 0 1-.219-.312 6 6 0 0 1-.312-.344q-.187-.219-.407-.469-.188-.28-.343-.5a26 26 0 0 1-.25-.406 1.4 1.4 0 0 0-.125-.25 1.2 1.2 0 0 0-.094-.25 3 3 0 0 0-.312-.375 7 7 0 0 1-.313-.406.8.8 0 0 1-.187.094q-.063 0-.125.062-.22.405-.5.75-.25.345-.5.75-.219.375-.438.781l-.437.75-.313.438q-.125.187-.281.437a3.5 3.5 0 0 0-.282.469 2.3 2.3 0 0 1-.25.438 6 6 0 0 0-.406.562 5 5 0 0 0-.312.594q.093.188.281.531.219.312.438.656.218.313.375.594.187.282.218.375.25.22.407.5.157.25.406.5.125.25.281.438.156.187.313.406.157.218.406.656.25.406.5.844t.5.812q.25.376.406.469.312-.345.5-.75.218-.438.563-.781M42.75 4.688q.5-.062.75.093.282.126.563.157.156.03.312.03.188-.03.375-.03.406 0 .625.093.25.094.5.407.063.062.156.187.125.094.125.188a.77.77 0 0 1-.125.437q-.125.188-.125.531 0 .532.125 1.063.126.5.157 1.031.156 1.938.156 3.906.03 1.938.031 3.844 0 .25-.031.469 0 .188-.125.343v.407q-.031.812.031 1.656.063.813.063 1.625 0 .719-.094 1.438-.063.718-.063 1.468 0 .688.094 1.344t.094 1.344a1.7 1.7 0 0 0-.188.437.7.7 0 0 1-.125.282.26.26 0 0 1-.218.03q-.094-.03-.157.063-.156.188-.218.438a.66.66 0 0 1-.313.406q-.062.438-.344.656a1.6 1.6 0 0 0-.375.625q-.375.031-.531-.031a4 4 0 0 0-.281-.125 5 5 0 0 1 0-.781q.062-.219.062-.469 0-.312-.156-.469a.85.85 0 0 1-.219-.406 7 7 0 0 0-.468-.281 1.1 1.1 0 0 1-.22-.219 2.7 2.7 0 0 1-.312-.531 4 4 0 0 0-.281-.532q-.438-.718-.906-1.468-.438-.75-.969-1.469a1.5 1.5 0 0 0-.219-.281 1.5 1.5 0 0 1-.218-.282 28 28 0 0 1-1-1.718 11 11 0 0 0-1.094-1.657 2.2 2.2 0 0 1-.375-.687 1.8 1.8 0 0 0-.375-.687 2 2 0 0 0-.032.343v.344q0 1.063.032 2.125.062 1.031.062 2.094 0 .219-.062.406-.032.157-.032.375 0 .312.032.594.03.281.031.562 0 .344-.031.657 0 .312-.032.625-.062.405-.156.78a2.7 2.7 0 0 0-.062 1.126q.062.188.062.343-.219.345-.562.344a.68.68 0 0 0-.532.25.5.5 0 0 0-.312.032.34.34 0 0 1-.187.062.7.7 0 0 1-.22-.031.35.35 0 0 0-.156-.032q-.156 0-.312.157-.156.156-.312.156-.095 0-.344-.125a9 9 0 0 1-.5-.312 4 4 0 0 1-.469-.344q-.219-.156-.219-.25a2.4 2.4 0 0 1-.031-.438q0-.375.031-.718l.125-.75q.094-1.063.094-2.094v-3q.03-.438.031-.875 0-1.031-.093-2.063a36 36 0 0 1-.063-2.093q0-.72.063-1.407a16 16 0 0 0 .03-2.437q-.03-.5-.03-1.031-.032-.345 0-.72.03-.405.03-.75.001-.405-.124-.75a3 3 0 0 1-.094-.687q0-.188.063-.344a.8.8 0 0 0 .093-.375q0-.25-.093-.5a2 2 0 0 1-.063-.5q0-.249.063-.468.062-.219.062-.469.438-.219.781-.219t.5.25q0 .563.063.875.062.282.093.594 0 .187-.03.438 0 .25.03.5.032.217.126.375.124.156.406.156.062.156.156.281a.7.7 0 0 1 .125.313.48.48 0 0 0 .219-.344q.03-.219 0-.406a.8.8 0 0 0 .281.062.35.35 0 0 1 .25.031q.063.438.156.781.095.313.063.75.624.469 1.062 1.344.469.844.875 1.531.22.344.5.657.313.28.469.687.25.156.406.406t.282.5q.624 1.094 1.374 2.126.75 1.03 1.563 2.03a3 3 0 0 0 .031-.405v-.438l-.031-2.812q0-.25-.031-.47 0-.217-.032-.468a14 14 0 0 1-.03-1.594q.03-.78 0-1.594a45 45 0 0 1-.094-1.718q0-.876-.063-1.75l-.062-1.063q-.032-.531-.032-1.062 0-.657.125-1.188a.5.5 0 0 1 .125-.093.4.4 0 0 1 .219-.063q.187 0 .25.313" fill="#FF8F00"/><path d="M60.438 4.688q.5-.062.75.093.28.126.562.157.156.03.313.03.187-.03.374-.03.407 0 .626.093.25.094.5.407.061.062.156.187.125.094.125.188a.77.77 0 0 1-.125.437q-.125.188-.125.531 0 .532.125 1.063.124.5.156 1.031.156 1.938.156 3.906a238 238 0 0 1 .031 3.844q0 .25-.03.469 0 .188-.126.343v.407q-.03.812.032 1.656.062.813.062 1.625 0 .719-.094 1.438-.062.718-.062 1.468 0 .688.093 1.344.094.656.094 1.344a1.7 1.7 0 0 0-.187.437.7.7 0 0 1-.125.282.26.26 0 0 1-.219.03q-.094-.03-.156.063-.156.188-.219.438a.66.66 0 0 1-.312.406q-.063.438-.344.656a1.6 1.6 0 0 0-.375.625q-.375.031-.532-.031a4 4 0 0 0-.28-.125 5 5 0 0 1 0-.781q.061-.219.062-.469 0-.312-.157-.469a.85.85 0 0 1-.218-.406 7 7 0 0 0-.469-.281 1.1 1.1 0 0 1-.219-.219 2.7 2.7 0 0 1-.312-.531 4 4 0 0 0-.282-.532q-.436-.718-.906-1.468-.437-.75-.968-1.469a1.5 1.5 0 0 0-.22-.281 1.5 1.5 0 0 1-.218-.282 28 28 0 0 1-1-1.718 11 11 0 0 0-1.094-1.657 2.2 2.2 0 0 1-.375-.687q-.124-.406-.375-.687-.03.156-.031.343v.344q0 1.063.031 2.125.063 1.031.063 2.094 0 .219-.063.406-.03.157-.031.375 0 .312.031.594.032.281.032.562 0 .344-.032.657 0 .312-.031.625-.063.405-.156.78a2.7 2.7 0 0 0-.063 1.126q.063.188.063.343-.22.345-.563.344a.68.68 0 0 0-.531.25.5.5 0 0 0-.312.032.34.34 0 0 1-.188.062.7.7 0 0 1-.219-.031.35.35 0 0 0-.156-.032q-.156 0-.312.157-.157.156-.313.156-.093 0-.344-.125a9 9 0 0 1-.5-.312 4 4 0 0 1-.468-.344q-.22-.156-.22-.25a2.4 2.4 0 0 1-.03-.438q0-.375.03-.718l.126-.75q.093-1.063.093-2.094v-3a12 12 0 0 0 .032-.875q0-1.031-.094-2.063a36 36 0 0 1-.062-2.093q0-.72.062-1.407a16 16 0 0 0 .031-2.437q-.03-.5-.031-1.031-.03-.345 0-.72.03-.405.031-.75 0-.405-.125-.75a3 3 0 0 1-.093-.687q0-.188.062-.344a.8.8 0 0 0 .094-.375q0-.25-.094-.5a2 2 0 0 1-.062-.5q0-.249.062-.468.063-.219.063-.469.437-.219.78-.219.345 0 .5.25 0 .563.063.875.063.282.094.594 0 .187-.031.438 0 .25.031.5.031.217.125.375.125.156.406.156.063.156.157.281a.7.7 0 0 1 .124.313.48.48 0 0 0 .22-.344q.03-.219 0-.406a.8.8 0 0 0 .28.062.35.35 0 0 1 .25.031q.063.438.157.781.093.313.062.75.625.469 1.063 1.344.468.844.875 1.531.218.344.5.657.312.28.468.687.25.156.407.406t.281.5q.625 1.094 1.375 2.126.75 1.03 1.563 2.03.03-.218.03-.405v-.438l-.03-2.812q0-.25-.032-.47 0-.217-.031-.468a14 14 0 0 1-.031-1.594q.03-.78 0-1.594a45 45 0 0 1-.094-1.718q0-.876-.062-1.75L59.75 6.78q-.03-.531-.031-1.062 0-.657.125-1.188a.5.5 0 0 1 .125-.093.4.4 0 0 1 .218-.063q.189 0 .25.313" fill="#FFA000"/><path d="M72.469 19.813q.062.155.437.656.406.5.906 1.093.5.594.938 1.157.469.53.656.781.344.438.656.875.345.406.626.875l.562.938q.25.312.438.53a1.5 1.5 0 0 1 .406.938q0 .219-.156.313-.25 0-.282.062 0 .094-.125.157-.125.062-.406.062-.25.03-.406.031-.282 0-.719-.031-.406 0-.656.094l-.188.093a.5.5 0 0 1-.187.063q-.25 0-.375-.094a.7.7 0 0 0-.281-.093 5 5 0 0 1-.438-.563 5 5 0 0 0-.375-.625 3.5 3.5 0 0 0-.437-.375 2.3 2.3 0 0 1-.376-.406 32 32 0 0 0-2-2.625 5 5 0 0 0-.53-.625 5 5 0 0 1-.532-.625 8 8 0 0 1-.469-.657q-.219-.375-.437-.718a28 28 0 0 0-.5-.719 9 9 0 0 0-.688-.906q-.375-.469-.75-.875t-.625-.625a.42.42 0 0 0-.156-.282 1.5 1.5 0 0 0-.281-.218 4 4 0 0 0-.125-.282.6.6 0 0 1-.094-.312q0-.219.094-.406.062-.126.094-.219 0-.125.062-.25.156-.344.406-.656a2.9 2.9 0 0 0 .438-.719.34.34 0 0 0 .062-.187q0-.126.063-.22a.75.75 0 0 1 .25-.405q.219-.188.344-.407.156-.25.28-.5.158-.28.313-.594.47-.78.969-1.5l1.063-1.5q.405-.624.78-1.187l.813-1.187q.219-.282.469-.657t.531-.75q.313-.375.625-.687a3.3 3.3 0 0 1 .625-.5q.47-.031.625.218.156.22.469.22.406.093.531.25.126.155.281.312.438 0 .688.156.282.156.531.469-.093.343-.281.625-.188.249-.344.531a.86.86 0 0 0-.375.344.7.7 0 0 1-.312.343q-.313.532-.656 1.032l-.688.937q-.187.281-.406.5a4 4 0 0 0-.469.688.8.8 0 0 1-.094.187q-.374.594-.812 1.125a8 8 0 0 0-.813 1.125 3 3 0 0 0-.219.469 2 2 0 0 1-.187.438 8 8 0 0 1-.375.5 10 10 0 0 0-.437.687q-.22.344-.407.688-.156.312-.156.53.03.157.375.626.374.437.813.968.469.5.874.97.406.436.532.53m2.062-5.688q.219.469.469.813.094.125.219.218a.57.57 0 0 1 .187.25q.063.063.125.281.063.189.125.282.094.25.375.562t.281.563q0 .156-.062.343a3 3 0 0 0-.094.344 2.5 2.5 0 0 0-.031.407q0 .188-.125.343a.63.63 0 0 1-.344.188.74.74 0 0 0-.344.156 5 5 0 0 0-.437.563l-.25.374a.54.54 0 0 0-.094.25q-.375.032-.5.032a.4.4 0 0 0-.219 0 1.3 1.3 0 0 0-.343-.25 1.5 1.5 0 0 0-.406-.219 1.8 1.8 0 0 0-.282-.562q-.218-.344-.375-.563l-.219-.281a76 76 0 0 1-.874-1.25 5 5 0 0 1-.563-1.375q.594-.437.906-.656.344-.22.719-.407.375-.188.719-.344.375-.186.687-.437.25 0 .344.031.094.032.125.063.03.03.063.125.062.062.218.156m10.594 5.344q.063.156.469.687.406.501.906 1.125l1.031 1.157q.5.562.688.812.594.874 1.219 1.719.624.844 1.187 1.75.157.157.25.406.094.219.094.469 0 .28-.156.312a.8.8 0 0 0-.282.063q-.312.219-.562.25-.25.03-.406.031-.345 0-.75-.031-.406 0-.688.062-.093.031-.219.094-.125.094-.187.094-.25 0-.375-.094a1.2 1.2 0 0 0-.281-.125 7 7 0 0 1-.47-.594q-.186-.312-.406-.625a2.3 2.3 0 0 0-.406-.375 2.7 2.7 0 0 1-.406-.437q-.5-.72-1.031-1.375a57 57 0 0 0-1.031-1.313 5.5 5.5 0 0 0-.563-.656 14 14 0 0 1-.531-.625 9 9 0 0 1-.469-.719 9 9 0 0 0-.469-.718 8 8 0 0 0-.531-.75q-.344-.469-.719-.938t-.781-.875a5 5 0 0 0-.656-.656q0-.219-.125-.313a11 11 0 0 1-.281-.218 1.2 1.2 0 0 0-.157-.282.66.66 0 0 1-.094-.343.7.7 0 0 1 .032-.22l.062-.187a.5.5 0 0 0 .063-.218q.03-.126.094-.25.156-.406.437-.72.313-.312.469-.718a1 1 0 0 0 .031-.219q0-.124.063-.25a1.5 1.5 0 0 1 .28-.375q.189-.187.344-.406l.313-.562.313-.563q.437-.719.968-1.375.531-.687 1-1.344.438-.625.813-1.219a21 21 0 0 1 1.312-1.937q.281-.405.563-.781.312-.376.625-.688.312-.344.625-.5.531-.062.687.188.156.218.438.218.437.095.594.282.156.188.312.343.406 0 .688.157.28.156.562.468-.125.345-.344.625-.188.282-.344.594a.7.7 0 0 0-.374.313.9.9 0 0 1-.313.375l-.687 1.062q-.345.5-.688.969-.157.188-.375.313a.75.75 0 0 0-.312.312.7.7 0 0 0-.094.219.8.8 0 0 1-.094.187q-.375.594-.844 1.156-.468.563-.812 1.188a2 2 0 0 0-.25.469 4 4 0 0 1-.219.437q-.124.188-.375.531-.219.345-.469.72-.219.343-.406.687-.156.312-.156.531.03.156.406.625.374.47.813 1 .469.531.874 1 .438.469.563.594m20.156-13.813a.6.6 0 0 0-.062.25q.031.125.031.282-.063.375 0 .375.062 0 .062.062l-.218.313a.66.66 0 0 1-.094.343.7.7 0 0 0-.031.375l-.188.313a.9.9 0 0 1-.219.312h-.406q-.344 0-.75.063-.375.03-.75.031h-.156a.6.6 0 0 0-.188-.031.5.5 0 0 0-.156.031h-.218q-.47 0-.938-.031a7 7 0 0 0-.938-.063h-.25q-.125 0-.28.031-.032.533-.063 1.094V10.5q0 .156-.031.344-.032.156-.032.312-.03.406-.062.781v2.532l.062 1.781.063.906q.03.438.031.907 0 1.062-.031 2.125-.031 1.03-.031 2.093 0 .344-.032.657-.03.28-.031.625 0 .718.031 1.437t.031 1.438q0 .343-.03.687v.688a2 2 0 0 0-.22.437q-.062.188-.374.188-.22-.063-.22-.157.032-.062-.03-.125-.282-.03-.438.032a1.1 1.1 0 0 1-.312.156.7.7 0 0 0-.22-.032h-.187a.3.3 0 0 0-.125.032q-.062.062-.281.062-.187.031-.219-.062-.03-.094-.187-.094a1 1 0 0 1-.375.125q-.187.063-.375.063-.188-.126-.188-.25.031-.094-.031-.22a.7.7 0 0 0-.125-.155.7.7 0 0 0-.125-.188q.063-.438.094-.781.03-.345.031-.75 0-.813-.062-1.594a20 20 0 0 1-.063-1.594q0-.249.063-.531.062-.28.062-.594-.063-.25-.031-.281a.3.3 0 0 0 .031-.125q0-.187-.031-.375v-1.125q.03-.375.031-.75 0-.156-.031-.312v-.344a5 5 0 0 1-.031-.594q.03-.312.03-.625 0-1.5-.062-2.969-.03-1.469-.031-2.969 0-.75.063-1.468.093-.75.093-1.5a.7.7 0 0 0-.062-.25.7.7 0 0 0-.125-.219h-.313a1.2 1.2 0 0 0-.281-.031q-.344 0-.656.093-.594.032-1.156.094l-1.094.063q-.375-.032-.469 0h-.156q-.25 0-.375-.125v-.407q-.187-.375-.156-.406.03-.03.03-.093 0-.094-.156-.188a.42.42 0 0 1-.187-.375.8.8 0 0 0-.125-.375.4.4 0 0 1-.094-.25q0-.218.094-.5a2.2 2.2 0 0 1 .531-.219q.282-.062.625-.156.188-.062.344-.125t.344-.094q.219-.03.437-.031.219 0 .438-.031.468-.094.969-.157a9 9 0 0 1 1-.062q.437 0 .874.125.438.094.782.094.5 0 .937.062.47.063.969.063a.5.5 0 0 1 .188.062q.156.032.343.032h3.031q.25.062.344.03a1 1 0 0 1 .219-.03q.25 0 .469.03.219.033.468.032.22 0 .344-.031.25.03.469.156.22.094.5.094a.56.56 0 0 1 .187.25.4.4 0 0 0 .219.187" fill="#FFB300"/></svg>