<svg width="106" height="32" viewBox="0 0 106 32" fill="none" xmlns="http://www.w3.org/2000/svg">
<path d="M8.03125 19.4688C8.07292 19.5729 8.22917 19.8021 8.5 20.1562C8.77083 20.4896 9.07292 20.8646 9.40625 21.2812C9.76042 21.6771 10.1042 22.0625 10.4375 22.4375C10.7708 22.8125 11 23.0833 11.125 23.25C11.5208 23.8333 11.9271 24.4062 12.3438 24.9688C12.7604 25.5312 13.1562 26.1146 13.5312 26.7188C13.6354 26.8229 13.7188 26.9583 13.7812 27.125C13.8438 27.2708 13.875 27.4271 13.875 27.5938C13.875 27.7812 13.8229 27.8854 13.7188 27.9062C13.6354 27.9062 13.5417 27.9271 13.4375 27.9688C13.2292 28.1146 13.0417 28.1979 12.875 28.2188C12.7083 28.2396 12.5729 28.25 12.4688 28.25C12.2396 28.25 11.9896 28.2396 11.7188 28.2188C11.4479 28.2188 11.2188 28.2396 11.0312 28.2812C10.9688 28.3021 10.8958 28.3333 10.8125 28.375C10.7292 28.4375 10.6667 28.4688 10.625 28.4688C10.4583 28.4688 10.3333 28.4375 10.25 28.375C10.1875 28.3333 10.0938 28.2917 9.96875 28.25C9.80208 28.0625 9.64583 27.8646 9.5 27.6562C9.375 27.4479 9.23958 27.2396 9.09375 27.0312C8.96875 26.8854 8.83333 26.7604 8.6875 26.6562C8.54167 26.5312 8.40625 26.3854 8.28125 26.2188C7.94792 25.7396 7.60417 25.2812 7.25 24.8438C6.91667 24.4062 6.57292 23.9688 6.21875 23.5312C6.05208 23.3021 5.86458 23.0833 5.65625 22.875C5.46875 22.6667 5.29167 22.4583 5.125 22.25C4.95833 22.0208 4.80208 21.7812 4.65625 21.5312C4.51042 21.2812 4.35417 21.0417 4.1875 20.8125C4.0625 20.6042 3.88542 20.3542 3.65625 20.0625C3.42708 19.75 3.1875 19.4375 2.9375 19.125C2.6875 18.8125 2.42708 18.5208 2.15625 18.25C1.90625 17.9583 1.6875 17.7396 1.5 17.5938C1.5 17.4479 1.45833 17.3438 1.375 17.2812C1.29167 17.2188 1.19792 17.1458 1.09375 17.0625C1.05208 16.9583 1 16.8646 0.9375 16.7812C0.875 16.6771 0.84375 16.5625 0.84375 16.4375C0.84375 16.3542 0.854167 16.2812 0.875 16.2188C0.895833 16.1562 0.916667 16.0938 0.9375 16.0312C0.979167 15.9479 1 15.875 1 15.8125C1.02083 15.7292 1.05208 15.6458 1.09375 15.5625C1.19792 15.2917 1.34375 15.0521 1.53125 14.8438C1.73958 14.6354 1.89583 14.3958 2 14.125C2.02083 14.0417 2.03125 13.9688 2.03125 13.9062C2.03125 13.8229 2.05208 13.7396 2.09375 13.6562C2.15625 13.5312 2.25 13.4062 2.375 13.2812C2.5 13.1562 2.61458 13.0208 2.71875 12.875C2.82292 12.6875 2.92708 12.5 3.03125 12.3125C3.13542 12.125 3.23958 11.9375 3.34375 11.75C3.63542 11.2708 3.95833 10.8125 4.3125 10.375C4.66667 9.91667 5 9.46875 5.3125 9.03125C5.60417 8.61458 5.875 8.20833 6.125 7.8125C6.375 7.39583 6.64583 6.97917 6.9375 6.5625C7.08333 6.35417 7.25 6.125 7.4375 5.875C7.625 5.60417 7.8125 5.34375 8 5.09375C8.20833 4.84375 8.41667 4.61458 8.625 4.40625C8.83333 4.17708 9.04167 4.01042 9.25 3.90625C9.60417 3.86458 9.83333 3.92708 9.9375 4.09375C10.0417 4.23958 10.1875 4.3125 10.375 4.3125C10.6667 4.375 10.8646 4.46875 10.9688 4.59375C11.0729 4.71875 11.1771 4.83333 11.2812 4.9375C11.5521 4.9375 11.7812 4.98958 11.9688 5.09375C12.1562 5.19792 12.3438 5.35417 12.5312 5.5625C12.4479 5.79167 12.3333 6 12.1875 6.1875C12.0625 6.375 11.9479 6.57292 11.8438 6.78125C11.6771 6.84375 11.5521 6.94792 11.4688 7.09375C11.4062 7.23958 11.3021 7.36458 11.1562 7.46875C10.9271 7.82292 10.6979 8.17708 10.4688 8.53125C10.2396 8.86458 10.0104 9.1875 9.78125 9.5C9.67708 9.625 9.55208 9.72917 9.40625 9.8125C9.28125 9.875 9.17708 9.97917 9.09375 10.125C9.05208 10.1875 9.02083 10.2604 9 10.3438C8.97917 10.4062 8.94792 10.4688 8.90625 10.5312C8.65625 10.9271 8.375 11.3125 8.0625 11.6875C7.75 12.0625 7.47917 12.4583 7.25 12.875C7.14583 13.0208 7.0625 13.1771 7 13.3438C6.9375 13.4896 6.86458 13.6354 6.78125 13.7812C6.69792 13.9062 6.57292 14.0833 6.40625 14.3125C6.26042 14.5417 6.10417 14.7812 5.9375 15.0312C5.79167 15.2604 5.65625 15.4896 5.53125 15.7188C5.42708 15.9271 5.375 16.1042 5.375 16.25C5.39583 16.3542 5.53125 16.5625 5.78125 16.875C6.03125 17.1875 6.30208 17.5208 6.59375 17.875C6.90625 18.2292 7.19792 18.5625 7.46875 18.875C7.76042 19.1875 7.94792 19.3854 8.03125 19.4688Z" fill="#FF6F00"/>
<path d="M30.4688 15.5938C30.4271 15.6771 30.3854 15.7604 30.3438 15.8438C30.3021 15.9062 30.2708 15.9792 30.25 16.0625C30.3333 16.1458 30.4062 16.2396 30.4688 16.3438C30.5521 16.4271 30.5938 16.5208 30.5938 16.625C30.5938 16.7083 30.5729 16.7917 30.5312 16.875C30.5104 16.9375 30.5104 17 30.5312 17.0625C30.4479 17.2083 30.3542 17.3438 30.25 17.4688C30.1667 17.5938 30.1042 17.7292 30.0625 17.875C29.9792 17.9583 29.9062 18.0417 29.8438 18.125C29.8021 18.2083 29.7604 18.2917 29.7188 18.375C29.6146 18.4167 29.5417 18.4896 29.5 18.5938C29.4792 18.6771 29.4271 18.75 29.3438 18.8125C29.3229 18.8958 29.2188 19.0938 29.0312 19.4062C28.8438 19.7188 28.6354 20.0521 28.4062 20.4062C28.1771 20.7604 27.9583 21.1042 27.75 21.4375C27.5417 21.7708 27.3958 21.9896 27.3125 22.0938C27.2708 22.1979 27.2188 22.2812 27.1562 22.3438C27.1146 22.4062 27.0625 22.4792 27 22.5625C26.9583 22.625 26.9271 22.6979 26.9062 22.7812C26.8854 22.8438 26.8542 22.8958 26.8125 22.9375C26.7708 23.0208 26.7188 23.0938 26.6562 23.1562C26.6146 23.2188 26.5729 23.3021 26.5312 23.4062C26.3229 23.6771 26.1146 24 25.9062 24.375C25.6979 24.75 25.5 25.0833 25.3125 25.375C25.2083 25.5417 25.1042 25.7083 25 25.875C24.9167 26.0417 24.8229 26.2083 24.7188 26.375C24.6146 26.5417 24.5104 26.6979 24.4062 26.8438C24.3021 26.9896 24.1979 27.1458 24.0938 27.3125C23.9271 27.4375 23.7812 27.5938 23.6562 27.7812C23.5312 27.9479 23.3854 28.0938 23.2188 28.2188C22.9479 28.2188 22.7812 28.0938 22.7188 27.8438C22.4479 27.7812 22.3125 27.7812 22.3125 27.8438C22.3125 27.9062 22.3125 27.9583 22.3125 28C22.2292 28.0417 22.1667 28.1042 22.125 28.1875C22.1042 28.2708 22.0521 28.3333 21.9688 28.375C21.8021 28.3333 21.6562 28.2604 21.5312 28.1562C21.4271 28.0729 21.2708 28.0417 21.0625 28.0625C20.9792 27.9375 20.8854 27.8333 20.7812 27.75C20.6771 27.6458 20.5833 27.5417 20.5 27.4375C20.4583 27.3125 20.3958 27.2083 20.3125 27.125C20.25 27.0417 20.1875 26.9583 20.125 26.875C20.0625 26.7708 20 26.6771 19.9375 26.5938C19.875 26.5104 19.8125 26.4271 19.75 26.3438C19.6042 26.1562 19.4583 25.9792 19.3125 25.8125C19.1875 25.625 19.0729 25.4375 18.9688 25.25C18.8021 25 18.6354 24.75 18.4688 24.5C18.3229 24.2292 18.1667 23.9688 18 23.7188C17.9167 23.5938 17.8333 23.4688 17.75 23.3438C17.6667 23.2188 17.5938 23.0938 17.5312 22.9688C17.4896 22.8646 17.4271 22.7396 17.3438 22.5938C17.2812 22.4479 17.1979 22.3542 17.0938 22.3125C17.0521 22.1458 16.9792 22.0208 16.875 21.9375C16.7708 21.8542 16.6667 21.75 16.5625 21.625C16.4167 21.4583 16.2812 21.2812 16.1562 21.0938C16.0312 20.8854 15.9062 20.6771 15.7812 20.4688C15.3646 19.8854 14.9688 19.3125 14.5938 18.75C14.2396 18.1875 13.8854 17.6042 13.5312 17C13.6354 16.6667 13.6875 16.4167 13.6875 16.25C13.6875 16.0833 13.7396 15.9479 13.8438 15.8438C13.8438 15.7604 13.8646 15.6354 13.9062 15.4688C14.1771 15.0104 14.4375 14.5938 14.6875 14.2188C14.9167 13.8646 15.0729 13.5729 15.1562 13.3438C15.2604 13.1146 15.3646 12.875 15.4688 12.625C15.5729 12.5625 15.6562 12.4896 15.7188 12.4062C15.7812 12.3021 15.8646 12.2083 15.9688 12.125C16.0104 11.8958 16.1042 11.7083 16.25 11.5625C16.3958 11.3958 16.4896 11.1979 16.5312 10.9688C16.7188 10.8229 16.8229 10.6562 16.8438 10.4688C17.1146 10.2812 17.2812 10.0312 17.3438 9.71875C17.5104 9.55208 17.6458 9.36458 17.75 9.15625C17.875 8.94792 17.9896 8.72917 18.0938 8.5C18.3438 8.29167 18.5417 8.02083 18.6875 7.6875C18.8125 7.60417 18.9062 7.48958 18.9688 7.34375C19.0312 7.19792 19.1146 7.07292 19.2188 6.96875C19.3854 6.69792 19.5104 6.47917 19.5938 6.3125C19.6979 6.125 19.8021 5.9375 19.9062 5.75C20.0521 5.75 20.1458 5.69792 20.1875 5.59375C20.2292 5.48958 20.3125 5.44792 20.4375 5.46875C20.4375 5.28125 20.4896 5.11458 20.5938 4.96875C20.6354 4.94792 20.6979 4.92708 20.7812 4.90625C20.8646 4.86458 20.9062 4.82292 20.9062 4.78125C20.8646 4.53125 20.875 4.38542 20.9375 4.34375C21 4.30208 21.0521 4.26042 21.0938 4.21875C21.3229 4.26042 21.4792 4.29167 21.5625 4.3125C21.6458 4.33333 21.7812 4.40625 21.9688 4.53125C22.1771 4.53125 22.3229 4.57292 22.4062 4.65625C22.4896 4.73958 22.5833 4.80208 22.6875 4.84375C22.7708 4.92708 22.8333 5.01042 22.875 5.09375C22.9375 5.17708 23.0208 5.23958 23.125 5.28125C23.2917 5.51042 23.4688 5.76042 23.6562 6.03125C23.8438 6.30208 24.0208 6.55208 24.1875 6.78125C24.4167 7.09375 24.6458 7.39583 24.875 7.6875C25.125 7.95833 25.3542 8.26042 25.5625 8.59375C25.625 8.69792 25.7396 8.88542 25.9062 9.15625C26.0729 9.40625 26.2604 9.67708 26.4688 9.96875C26.6771 10.2604 26.8646 10.5312 27.0312 10.7812C27.1979 11.0104 27.3125 11.1458 27.375 11.1875C27.4375 11.2917 27.5729 11.4896 27.7812 11.7812C27.9896 12.0729 28.2083 12.3854 28.4375 12.7188C28.6875 13.0312 28.9271 13.3333 29.1562 13.625C29.3854 13.9167 29.5417 14.1042 29.625 14.1875C29.8542 14.5 30.0208 14.7604 30.125 14.9688C30.25 15.1562 30.3646 15.3646 30.4688 15.5938ZM23.3125 21.4688C23.5417 21.1562 23.7188 20.875 23.8438 20.625C23.9688 20.375 24.0938 20.125 24.2188 19.875C24.4271 19.625 24.5521 19.4479 24.5938 19.3438C24.6354 19.2396 24.6875 19.1354 24.75 19.0312C24.9167 18.7812 25.0833 18.5312 25.25 18.2812C25.4375 18.0312 25.5833 17.7604 25.6875 17.4688C25.8125 17.3854 25.9062 17.2812 25.9688 17.1562C26.0312 17.0312 26.125 16.9167 26.25 16.8125C26.125 16.375 25.9792 16.0417 25.8125 15.8125C25.6458 15.5625 25.4792 15.3229 25.3125 15.0938C25.25 14.9896 25.1875 14.8854 25.125 14.7812C25.0625 14.6771 25 14.5729 24.9375 14.4688C24.8542 14.4062 24.7812 14.3438 24.7188 14.2812C24.6771 14.2188 24.625 14.1562 24.5625 14.0938C24.5208 13.9896 24.4583 13.8542 24.375 13.6875C24.2917 13.5833 24.2083 13.4896 24.125 13.4062C24.0417 13.3229 23.9688 13.2188 23.9062 13.0938C23.8229 13.0104 23.7188 12.8958 23.5938 12.75C23.4688 12.6042 23.3333 12.4479 23.1875 12.2812C23.0625 12.0938 22.9479 11.9271 22.8438 11.7812C22.7396 11.6146 22.6562 11.4792 22.5938 11.375C22.5521 11.2708 22.5104 11.1875 22.4688 11.125C22.4479 11.0417 22.4167 10.9583 22.375 10.875C22.2708 10.7292 22.1667 10.6042 22.0625 10.5C21.9583 10.375 21.8542 10.2396 21.75 10.0938C21.6875 10.1354 21.625 10.1667 21.5625 10.1875C21.5208 10.1875 21.4792 10.2083 21.4375 10.25C21.2917 10.5208 21.125 10.7708 20.9375 11C20.7708 11.2292 20.6042 11.4792 20.4375 11.75C20.2917 12 20.1458 12.2604 20 12.5312C19.8542 12.7812 19.7083 13.0312 19.5625 13.2812C19.4583 13.4271 19.3542 13.5729 19.25 13.7188C19.1667 13.8438 19.0729 13.9896 18.9688 14.1562C18.8646 14.3021 18.7708 14.4583 18.6875 14.625C18.625 14.7708 18.5417 14.9167 18.4375 15.0625C18.2708 15.2708 18.1354 15.4583 18.0312 15.625C17.9271 15.7917 17.8229 15.9896 17.7188 16.2188C17.7812 16.3438 17.875 16.5208 18 16.75C18.1458 16.9583 18.2917 17.1771 18.4375 17.4062C18.5833 17.6146 18.7083 17.8125 18.8125 18C18.9375 18.1875 19.0104 18.3125 19.0312 18.375C19.1979 18.5208 19.3333 18.6875 19.4375 18.875C19.5417 19.0417 19.6771 19.2083 19.8438 19.375C19.9271 19.5417 20.0208 19.6875 20.125 19.8125C20.2292 19.9375 20.3333 20.0729 20.4375 20.2188C20.5417 20.3646 20.6771 20.5833 20.8438 20.875C21.0104 21.1458 21.1771 21.4271 21.3438 21.7188C21.5104 22.0104 21.6771 22.2812 21.8438 22.5312C22.0104 22.7812 22.1458 22.9375 22.25 23C22.4583 22.7708 22.625 22.5208 22.75 22.25C22.8958 21.9583 23.0833 21.6979 23.3125 21.4688ZM42.75 4.6875C43.0833 4.64583 43.3333 4.67708 43.5 4.78125C43.6875 4.86458 43.875 4.91667 44.0625 4.9375C44.1667 4.95833 44.2708 4.96875 44.375 4.96875C44.5 4.94792 44.625 4.9375 44.75 4.9375C45.0208 4.9375 45.2292 4.96875 45.375 5.03125C45.5417 5.09375 45.7083 5.22917 45.875 5.4375C45.9167 5.47917 45.9688 5.54167 46.0312 5.625C46.1146 5.6875 46.1562 5.75 46.1562 5.8125C46.1562 5.97917 46.1146 6.125 46.0312 6.25C45.9479 6.375 45.9062 6.55208 45.9062 6.78125C45.9062 7.13542 45.9479 7.48958 46.0312 7.84375C46.1146 8.17708 46.1667 8.52083 46.1875 8.875C46.2917 10.1667 46.3438 11.4688 46.3438 12.7812C46.3646 14.0729 46.375 15.3542 46.375 16.625C46.375 16.7917 46.3646 16.9479 46.3438 17.0938C46.3438 17.2188 46.3021 17.3333 46.2188 17.4375V17.8438C46.1979 18.3854 46.2083 18.9375 46.25 19.5C46.2917 20.0417 46.3125 20.5833 46.3125 21.125C46.3125 21.6042 46.2812 22.0833 46.2188 22.5625C46.1771 23.0417 46.1562 23.5312 46.1562 24.0312C46.1562 24.4896 46.1875 24.9375 46.25 25.375C46.3125 25.8125 46.3438 26.2604 46.3438 26.7188C46.2396 26.9062 46.1771 27.0521 46.1562 27.1562C46.1354 27.2604 46.0938 27.3542 46.0312 27.4375C45.9688 27.4792 45.8958 27.4896 45.8125 27.4688C45.75 27.4479 45.6979 27.4688 45.6562 27.5312C45.5521 27.6562 45.4792 27.8021 45.4375 27.9688C45.3958 28.1354 45.2917 28.2708 45.125 28.375C45.0833 28.6667 44.9688 28.8854 44.7812 29.0312C44.6146 29.1979 44.4896 29.4062 44.4062 29.6562C44.1562 29.6771 43.9792 29.6667 43.875 29.625C43.7917 29.5833 43.6979 29.5417 43.5938 29.5C43.5729 29.1458 43.5729 28.8854 43.5938 28.7188C43.6354 28.5729 43.6562 28.4167 43.6562 28.25C43.6562 28.0417 43.6042 27.8854 43.5 27.7812C43.3958 27.6771 43.3229 27.5417 43.2812 27.375C43.0521 27.2292 42.8958 27.1354 42.8125 27.0938C42.7292 27.0312 42.6562 26.9583 42.5938 26.875C42.4688 26.7083 42.3646 26.5312 42.2812 26.3438C42.1979 26.1562 42.1042 25.9792 42 25.8125C41.7083 25.3333 41.4062 24.8438 41.0938 24.3438C40.8021 23.8438 40.4792 23.3542 40.125 22.875C40.0625 22.7708 39.9896 22.6771 39.9062 22.5938C39.8229 22.5104 39.75 22.4167 39.6875 22.3125C39.3333 21.75 39 21.1771 38.6875 20.5938C38.375 20.0104 38.0104 19.4583 37.5938 18.9375C37.4271 18.7292 37.3021 18.5 37.2188 18.25C37.1354 17.9792 37.0104 17.75 36.8438 17.5625C36.8229 17.6667 36.8125 17.7812 36.8125 17.9062C36.8125 18.0312 36.8125 18.1458 36.8125 18.25C36.8125 18.9583 36.8229 19.6667 36.8438 20.375C36.8854 21.0625 36.9062 21.7604 36.9062 22.4688C36.9062 22.6146 36.8854 22.75 36.8438 22.875C36.8229 22.9792 36.8125 23.1042 36.8125 23.25C36.8125 23.4583 36.8229 23.6562 36.8438 23.8438C36.8646 24.0312 36.875 24.2188 36.875 24.4062C36.875 24.6354 36.8646 24.8542 36.8438 25.0625C36.8438 25.2708 36.8333 25.4792 36.8125 25.6875C36.7708 25.9583 36.7188 26.2188 36.6562 26.4688C36.5938 26.6979 36.5625 26.9375 36.5625 27.1875C36.5625 27.3333 36.5729 27.4688 36.5938 27.5938C36.6354 27.7188 36.6562 27.8333 36.6562 27.9375C36.5104 28.1667 36.3229 28.2812 36.0938 28.2812C35.8854 28.2812 35.7083 28.3646 35.5625 28.5312C35.4375 28.5104 35.3333 28.5208 35.25 28.5625C35.1875 28.6042 35.125 28.625 35.0625 28.625C34.9792 28.625 34.9062 28.6146 34.8438 28.5938C34.8021 28.5729 34.75 28.5625 34.6875 28.5625C34.5833 28.5625 34.4792 28.6146 34.375 28.7188C34.2708 28.8229 34.1667 28.875 34.0625 28.875C34 28.875 33.8854 28.8333 33.7188 28.75C33.5729 28.6667 33.4062 28.5625 33.2188 28.4375C33.0521 28.3333 32.8958 28.2188 32.75 28.0938C32.6042 27.9896 32.5312 27.9062 32.5312 27.8438C32.5104 27.7396 32.5 27.5938 32.5 27.4062C32.5 27.1562 32.5104 26.9167 32.5312 26.6875C32.5729 26.4375 32.6146 26.1875 32.6562 25.9375C32.7188 25.2292 32.75 24.5312 32.75 23.8438C32.75 23.1354 32.75 22.4271 32.75 21.7188C32.75 21.4271 32.75 21.1354 32.75 20.8438C32.7708 20.5521 32.7812 20.2604 32.7812 19.9688C32.7812 19.2812 32.75 18.5938 32.6875 17.9062C32.6458 17.1979 32.625 16.5 32.625 15.8125C32.625 15.3333 32.6458 14.8646 32.6875 14.4062C32.7292 13.9271 32.75 13.4583 32.75 13C32.75 12.6458 32.7396 12.3021 32.7188 11.9688C32.6979 11.6354 32.6875 11.2917 32.6875 10.9375C32.6667 10.7083 32.6667 10.4688 32.6875 10.2188C32.7083 9.94792 32.7188 9.69792 32.7188 9.46875C32.7188 9.19792 32.6771 8.94792 32.5938 8.71875C32.5312 8.46875 32.5 8.23958 32.5 8.03125C32.5 7.90625 32.5208 7.79167 32.5625 7.6875C32.625 7.5625 32.6562 7.4375 32.6562 7.3125C32.6562 7.14583 32.625 6.97917 32.5625 6.8125C32.5208 6.64583 32.5 6.47917 32.5 6.3125C32.5 6.14583 32.5208 5.98958 32.5625 5.84375C32.6042 5.69792 32.625 5.54167 32.625 5.375C32.9167 5.22917 33.1771 5.15625 33.4062 5.15625C33.6354 5.15625 33.8021 5.23958 33.9062 5.40625C33.9062 5.78125 33.9271 6.07292 33.9688 6.28125C34.0104 6.46875 34.0417 6.66667 34.0625 6.875C34.0625 7 34.0521 7.14583 34.0312 7.3125C34.0312 7.47917 34.0417 7.64583 34.0625 7.8125C34.0833 7.95833 34.125 8.08333 34.1875 8.1875C34.2708 8.29167 34.4062 8.34375 34.5938 8.34375C34.6354 8.44792 34.6875 8.54167 34.75 8.625C34.8125 8.70833 34.8542 8.8125 34.875 8.9375C35 8.85417 35.0729 8.73958 35.0938 8.59375C35.1146 8.44792 35.1146 8.3125 35.0938 8.1875C35.1979 8.22917 35.2917 8.25 35.375 8.25C35.4583 8.22917 35.5417 8.23958 35.625 8.28125C35.6667 8.57292 35.7188 8.83333 35.7812 9.0625C35.8438 9.27083 35.8646 9.52083 35.8438 9.8125C36.2604 10.125 36.6146 10.5729 36.9062 11.1562C37.2188 11.7188 37.5104 12.2292 37.7812 12.6875C37.9271 12.9167 38.0938 13.1354 38.2812 13.3438C38.4896 13.5312 38.6458 13.7604 38.75 14.0312C38.9167 14.1354 39.0521 14.2708 39.1562 14.4375C39.2604 14.6042 39.3542 14.7708 39.4375 14.9375C39.8542 15.6667 40.3125 16.375 40.8125 17.0625C41.3125 17.75 41.8333 18.4271 42.375 19.0938C42.3958 18.9479 42.4062 18.8125 42.4062 18.6875C42.4062 18.5417 42.4062 18.3958 42.4062 18.25L42.375 15.4375C42.375 15.2708 42.3646 15.1146 42.3438 14.9688C42.3438 14.8229 42.3333 14.6667 42.3125 14.5C42.2708 13.9583 42.2604 13.4271 42.2812 12.9062C42.3021 12.3854 42.3021 11.8542 42.2812 11.3125C42.2396 10.75 42.2083 10.1771 42.1875 9.59375C42.1875 9.01042 42.1667 8.42708 42.125 7.84375C42.1042 7.48958 42.0833 7.13542 42.0625 6.78125C42.0417 6.42708 42.0312 6.07292 42.0312 5.71875C42.0312 5.28125 42.0729 4.88542 42.1562 4.53125C42.1979 4.48958 42.2396 4.45833 42.2812 4.4375C42.3438 4.39583 42.4167 4.375 42.5 4.375C42.625 4.375 42.7083 4.47917 42.75 4.6875Z" fill="#FF8F00"/>
<path d="M60.4375 4.6875C60.7708 4.64583 61.0208 4.67708 61.1875 4.78125C61.375 4.86458 61.5625 4.91667 61.75 4.9375C61.8542 4.95833 61.9583 4.96875 62.0625 4.96875C62.1875 4.94792 62.3125 4.9375 62.4375 4.9375C62.7083 4.9375 62.9167 4.96875 63.0625 5.03125C63.2292 5.09375 63.3958 5.22917 63.5625 5.4375C63.6042 5.47917 63.6562 5.54167 63.7188 5.625C63.8021 5.6875 63.8438 5.75 63.8438 5.8125C63.8438 5.97917 63.8021 6.125 63.7188 6.25C63.6354 6.375 63.5938 6.55208 63.5938 6.78125C63.5938 7.13542 63.6354 7.48958 63.7188 7.84375C63.8021 8.17708 63.8542 8.52083 63.875 8.875C63.9792 10.1667 64.0312 11.4688 64.0312 12.7812C64.0521 14.0729 64.0625 15.3542 64.0625 16.625C64.0625 16.7917 64.0521 16.9479 64.0312 17.0938C64.0312 17.2188 63.9896 17.3333 63.9062 17.4375V17.8438C63.8854 18.3854 63.8958 18.9375 63.9375 19.5C63.9792 20.0417 64 20.5833 64 21.125C64 21.6042 63.9688 22.0833 63.9062 22.5625C63.8646 23.0417 63.8438 23.5312 63.8438 24.0312C63.8438 24.4896 63.875 24.9375 63.9375 25.375C64 25.8125 64.0312 26.2604 64.0312 26.7188C63.9271 26.9062 63.8646 27.0521 63.8438 27.1562C63.8229 27.2604 63.7812 27.3542 63.7188 27.4375C63.6562 27.4792 63.5833 27.4896 63.5 27.4688C63.4375 27.4479 63.3854 27.4688 63.3438 27.5312C63.2396 27.6562 63.1667 27.8021 63.125 27.9688C63.0833 28.1354 62.9792 28.2708 62.8125 28.375C62.7708 28.6667 62.6562 28.8854 62.4688 29.0312C62.3021 29.1979 62.1771 29.4062 62.0938 29.6562C61.8438 29.6771 61.6667 29.6667 61.5625 29.625C61.4792 29.5833 61.3854 29.5417 61.2812 29.5C61.2604 29.1458 61.2604 28.8854 61.2812 28.7188C61.3229 28.5729 61.3438 28.4167 61.3438 28.25C61.3438 28.0417 61.2917 27.8854 61.1875 27.7812C61.0833 27.6771 61.0104 27.5417 60.9688 27.375C60.7396 27.2292 60.5833 27.1354 60.5 27.0938C60.4167 27.0312 60.3438 26.9583 60.2812 26.875C60.1562 26.7083 60.0521 26.5312 59.9688 26.3438C59.8854 26.1562 59.7917 25.9792 59.6875 25.8125C59.3958 25.3333 59.0938 24.8438 58.7812 24.3438C58.4896 23.8438 58.1667 23.3542 57.8125 22.875C57.75 22.7708 57.6771 22.6771 57.5938 22.5938C57.5104 22.5104 57.4375 22.4167 57.375 22.3125C57.0208 21.75 56.6875 21.1771 56.375 20.5938C56.0625 20.0104 55.6979 19.4583 55.2812 18.9375C55.1146 18.7292 54.9896 18.5 54.9062 18.25C54.8229 17.9792 54.6979 17.75 54.5312 17.5625C54.5104 17.6667 54.5 17.7812 54.5 17.9062C54.5 18.0312 54.5 18.1458 54.5 18.25C54.5 18.9583 54.5104 19.6667 54.5312 20.375C54.5729 21.0625 54.5938 21.7604 54.5938 22.4688C54.5938 22.6146 54.5729 22.75 54.5312 22.875C54.5104 22.9792 54.5 23.1042 54.5 23.25C54.5 23.4583 54.5104 23.6562 54.5312 23.8438C54.5521 24.0312 54.5625 24.2188 54.5625 24.4062C54.5625 24.6354 54.5521 24.8542 54.5312 25.0625C54.5312 25.2708 54.5208 25.4792 54.5 25.6875C54.4583 25.9583 54.4062 26.2188 54.3438 26.4688C54.2812 26.6979 54.25 26.9375 54.25 27.1875C54.25 27.3333 54.2604 27.4688 54.2812 27.5938C54.3229 27.7188 54.3438 27.8333 54.3438 27.9375C54.1979 28.1667 54.0104 28.2812 53.7812 28.2812C53.5729 28.2812 53.3958 28.3646 53.25 28.5312C53.125 28.5104 53.0208 28.5208 52.9375 28.5625C52.875 28.6042 52.8125 28.625 52.75 28.625C52.6667 28.625 52.5938 28.6146 52.5312 28.5938C52.4896 28.5729 52.4375 28.5625 52.375 28.5625C52.2708 28.5625 52.1667 28.6146 52.0625 28.7188C51.9583 28.8229 51.8542 28.875 51.75 28.875C51.6875 28.875 51.5729 28.8333 51.4062 28.75C51.2604 28.6667 51.0938 28.5625 50.9062 28.4375C50.7396 28.3333 50.5833 28.2188 50.4375 28.0938C50.2917 27.9896 50.2188 27.9062 50.2188 27.8438C50.1979 27.7396 50.1875 27.5938 50.1875 27.4062C50.1875 27.1562 50.1979 26.9167 50.2188 26.6875C50.2604 26.4375 50.3021 26.1875 50.3438 25.9375C50.4062 25.2292 50.4375 24.5312 50.4375 23.8438C50.4375 23.1354 50.4375 22.4271 50.4375 21.7188C50.4375 21.4271 50.4375 21.1354 50.4375 20.8438C50.4583 20.5521 50.4688 20.2604 50.4688 19.9688C50.4688 19.2812 50.4375 18.5938 50.375 17.9062C50.3333 17.1979 50.3125 16.5 50.3125 15.8125C50.3125 15.3333 50.3333 14.8646 50.375 14.4062C50.4167 13.9271 50.4375 13.4583 50.4375 13C50.4375 12.6458 50.4271 12.3021 50.4062 11.9688C50.3854 11.6354 50.375 11.2917 50.375 10.9375C50.3542 10.7083 50.3542 10.4688 50.375 10.2188C50.3958 9.94792 50.4062 9.69792 50.4062 9.46875C50.4062 9.19792 50.3646 8.94792 50.2812 8.71875C50.2188 8.46875 50.1875 8.23958 50.1875 8.03125C50.1875 7.90625 50.2083 7.79167 50.25 7.6875C50.3125 7.5625 50.3438 7.4375 50.3438 7.3125C50.3438 7.14583 50.3125 6.97917 50.25 6.8125C50.2083 6.64583 50.1875 6.47917 50.1875 6.3125C50.1875 6.14583 50.2083 5.98958 50.25 5.84375C50.2917 5.69792 50.3125 5.54167 50.3125 5.375C50.6042 5.22917 50.8646 5.15625 51.0938 5.15625C51.3229 5.15625 51.4896 5.23958 51.5938 5.40625C51.5938 5.78125 51.6146 6.07292 51.6562 6.28125C51.6979 6.46875 51.7292 6.66667 51.75 6.875C51.75 7 51.7396 7.14583 51.7188 7.3125C51.7188 7.47917 51.7292 7.64583 51.75 7.8125C51.7708 7.95833 51.8125 8.08333 51.875 8.1875C51.9583 8.29167 52.0938 8.34375 52.2812 8.34375C52.3229 8.44792 52.375 8.54167 52.4375 8.625C52.5 8.70833 52.5417 8.8125 52.5625 8.9375C52.6875 8.85417 52.7604 8.73958 52.7812 8.59375C52.8021 8.44792 52.8021 8.3125 52.7812 8.1875C52.8854 8.22917 52.9792 8.25 53.0625 8.25C53.1458 8.22917 53.2292 8.23958 53.3125 8.28125C53.3542 8.57292 53.4062 8.83333 53.4688 9.0625C53.5312 9.27083 53.5521 9.52083 53.5312 9.8125C53.9479 10.125 54.3021 10.5729 54.5938 11.1562C54.9062 11.7188 55.1979 12.2292 55.4688 12.6875C55.6146 12.9167 55.7812 13.1354 55.9688 13.3438C56.1771 13.5312 56.3333 13.7604 56.4375 14.0312C56.6042 14.1354 56.7396 14.2708 56.8438 14.4375C56.9479 14.6042 57.0417 14.7708 57.125 14.9375C57.5417 15.6667 58 16.375 58.5 17.0625C59 17.75 59.5208 18.4271 60.0625 19.0938C60.0833 18.9479 60.0938 18.8125 60.0938 18.6875C60.0938 18.5417 60.0938 18.3958 60.0938 18.25L60.0625 15.4375C60.0625 15.2708 60.0521 15.1146 60.0312 14.9688C60.0312 14.8229 60.0208 14.6667 60 14.5C59.9583 13.9583 59.9479 13.4271 59.9688 12.9062C59.9896 12.3854 59.9896 11.8542 59.9688 11.3125C59.9271 10.75 59.8958 10.1771 59.875 9.59375C59.875 9.01042 59.8542 8.42708 59.8125 7.84375C59.7917 7.48958 59.7708 7.13542 59.75 6.78125C59.7292 6.42708 59.7188 6.07292 59.7188 5.71875C59.7188 5.28125 59.7604 4.88542 59.8438 4.53125C59.8854 4.48958 59.9271 4.45833 59.9688 4.4375C60.0312 4.39583 60.1042 4.375 60.1875 4.375C60.3125 4.375 60.3958 4.47917 60.4375 4.6875Z" fill="#FFA000"/>
<path d="M72.4688 19.8125C72.5104 19.9167 72.6562 20.1354 72.9062 20.4688C73.1771 20.8021 73.4792 21.1667 73.8125 21.5625C74.1458 21.9583 74.4583 22.3438 74.75 22.7188C75.0625 23.0729 75.2812 23.3333 75.4062 23.5C75.6354 23.7917 75.8542 24.0833 76.0625 24.375C76.2917 24.6458 76.5 24.9375 76.6875 25.25L77.25 26.1875C77.4167 26.3958 77.5625 26.5729 77.6875 26.7188C77.8333 26.8646 77.9479 27.0625 78.0312 27.3125C78.0729 27.4792 78.0938 27.5938 78.0938 27.6562C78.0938 27.8021 78.0417 27.9062 77.9375 27.9688C77.7708 27.9688 77.6771 27.9896 77.6562 28.0312C77.6562 28.0938 77.6146 28.1458 77.5312 28.1875C77.4479 28.2292 77.3125 28.25 77.125 28.25C76.9583 28.2708 76.8229 28.2812 76.7188 28.2812C76.5312 28.2812 76.2917 28.2708 76 28.25C75.7292 28.25 75.5104 28.2812 75.3438 28.3438C75.3021 28.3646 75.2396 28.3958 75.1562 28.4375C75.0729 28.4792 75.0104 28.5 74.9688 28.5C74.8021 28.5 74.6771 28.4688 74.5938 28.4062C74.5312 28.3646 74.4375 28.3333 74.3125 28.3125C74.1458 28.125 74 27.9375 73.875 27.75C73.7708 27.5417 73.6458 27.3333 73.5 27.125C73.3542 26.9792 73.2083 26.8542 73.0625 26.75C72.9167 26.625 72.7917 26.4896 72.6875 26.3438C72.375 25.8854 72.0521 25.4375 71.7188 25C71.3854 24.5625 71.0417 24.1354 70.6875 23.7188C70.5208 23.4896 70.3438 23.2812 70.1562 23.0938C69.9688 22.9062 69.7917 22.6979 69.625 22.4688C69.4583 22.2604 69.3021 22.0417 69.1562 21.8125C69.0104 21.5625 68.8646 21.3229 68.7188 21.0938C68.5938 20.9062 68.4271 20.6667 68.2188 20.375C68.0104 20.0625 67.7812 19.7604 67.5312 19.4688C67.2812 19.1562 67.0312 18.8646 66.7812 18.5938C66.5312 18.3229 66.3229 18.1146 66.1562 17.9688C66.1354 17.8438 66.0833 17.75 66 17.6875C65.9167 17.6042 65.8229 17.5312 65.7188 17.4688C65.6771 17.3646 65.6354 17.2708 65.5938 17.1875C65.5312 17.0833 65.5 16.9792 65.5 16.875C65.5 16.7292 65.5312 16.5938 65.5938 16.4688C65.6354 16.3854 65.6667 16.3125 65.6875 16.25C65.6875 16.1667 65.7083 16.0833 65.75 16C65.8542 15.7708 65.9896 15.5521 66.1562 15.3438C66.3438 15.1146 66.4896 14.875 66.5938 14.625C66.6354 14.5625 66.6562 14.5 66.6562 14.4375C66.6562 14.3542 66.6771 14.2812 66.7188 14.2188C66.7604 14.0521 66.8438 13.9167 66.9688 13.8125C67.1146 13.6875 67.2292 13.5521 67.3125 13.4062C67.4167 13.2396 67.5104 13.0729 67.5938 12.9062C67.6979 12.7188 67.8021 12.5208 67.9062 12.3125C68.2188 11.7917 68.5417 11.2917 68.875 10.8125C69.2292 10.3125 69.5833 9.8125 69.9375 9.3125C70.2083 8.89583 70.4688 8.5 70.7188 8.125C70.9896 7.72917 71.2604 7.33333 71.5312 6.9375C71.6771 6.75 71.8333 6.53125 72 6.28125C72.1667 6.03125 72.3438 5.78125 72.5312 5.53125C72.7396 5.28125 72.9479 5.05208 73.1562 4.84375C73.3646 4.63542 73.5729 4.46875 73.7812 4.34375C74.0938 4.32292 74.3021 4.39583 74.4062 4.5625C74.5104 4.70833 74.6667 4.78125 74.875 4.78125C75.1458 4.84375 75.3229 4.92708 75.4062 5.03125C75.4896 5.13542 75.5833 5.23958 75.6875 5.34375C75.9792 5.34375 76.2083 5.39583 76.375 5.5C76.5625 5.60417 76.7396 5.76042 76.9062 5.96875C76.8438 6.19792 76.75 6.40625 76.625 6.59375C76.5 6.76042 76.3854 6.9375 76.2812 7.125C76.1146 7.20833 75.9896 7.32292 75.9062 7.46875C75.8438 7.61458 75.7396 7.72917 75.5938 7.8125C75.3854 8.16667 75.1667 8.51042 74.9375 8.84375C74.7083 9.15625 74.4792 9.46875 74.25 9.78125C74.125 9.96875 73.9896 10.1354 73.8438 10.2812C73.7188 10.4271 73.6042 10.5833 73.5 10.75C73.4583 10.8125 73.4167 10.8854 73.375 10.9688C73.3542 11.0312 73.3229 11.0938 73.2812 11.1562C73.0312 11.5521 72.7604 11.9271 72.4688 12.2812C72.1771 12.6146 71.9062 12.9896 71.6562 13.4062C71.5729 13.5521 71.5 13.7083 71.4375 13.875C71.3958 14.0208 71.3333 14.1667 71.25 14.3125C71.1667 14.4375 71.0417 14.6042 70.875 14.8125C70.7292 15.0208 70.5833 15.25 70.4375 15.5C70.2917 15.7292 70.1562 15.9583 70.0312 16.1875C69.9271 16.3958 69.875 16.5729 69.875 16.7188C69.8958 16.8229 70.0208 17.0312 70.25 17.3438C70.5 17.6354 70.7708 17.9583 71.0625 18.3125C71.375 18.6458 71.6667 18.9688 71.9375 19.2812C72.2083 19.5729 72.3854 19.75 72.4688 19.8125ZM74.5312 14.125C74.6771 14.4375 74.8333 14.7083 75 14.9375C75.0625 15.0208 75.1354 15.0938 75.2188 15.1562C75.3021 15.2188 75.3646 15.3021 75.4062 15.4062C75.4479 15.4479 75.4896 15.5417 75.5312 15.6875C75.5729 15.8125 75.6146 15.9062 75.6562 15.9688C75.7188 16.1354 75.8438 16.3229 76.0312 16.5312C76.2188 16.7396 76.3125 16.9271 76.3125 17.0938C76.3125 17.1979 76.2917 17.3125 76.25 17.4375C76.2083 17.5625 76.1771 17.6771 76.1562 17.7812C76.1354 17.9062 76.125 18.0417 76.125 18.1875C76.125 18.3125 76.0833 18.4271 76 18.5312C75.8958 18.6354 75.7812 18.6979 75.6562 18.7188C75.5312 18.7396 75.4167 18.7917 75.3125 18.875C75.2708 18.9167 75.2083 18.9896 75.125 19.0938C75.0417 19.1979 74.9583 19.3125 74.875 19.4375C74.7917 19.5625 74.7083 19.6875 74.625 19.8125C74.5625 19.9167 74.5312 20 74.5312 20.0625C74.2812 20.0833 74.1146 20.0938 74.0312 20.0938C73.9688 20.0729 73.8958 20.0729 73.8125 20.0938C73.7083 19.9896 73.5938 19.9062 73.4688 19.8438C73.3646 19.7604 73.2292 19.6875 73.0625 19.625C73.0208 19.4583 72.9271 19.2708 72.7812 19.0625C72.6354 18.8333 72.5104 18.6458 72.4062 18.5L72.1875 18.2188C71.875 17.7812 71.5833 17.3646 71.3125 16.9688C71.0625 16.5521 70.875 16.0938 70.75 15.5938C71.1458 15.3021 71.4479 15.0833 71.6562 14.9375C71.8854 14.7917 72.125 14.6562 72.375 14.5312C72.625 14.4062 72.8646 14.2917 73.0938 14.1875C73.3438 14.0625 73.5729 13.9167 73.7812 13.75C73.9479 13.75 74.0625 13.7604 74.125 13.7812C74.1875 13.8021 74.2292 13.8229 74.25 13.8438C74.2708 13.8646 74.2917 13.9062 74.3125 13.9688C74.3542 14.0104 74.4271 14.0625 74.5312 14.125ZM85.125 19.4688C85.1667 19.5729 85.3229 19.8021 85.5938 20.1562C85.8646 20.4896 86.1667 20.8646 86.5 21.2812C86.8542 21.6771 87.1979 22.0625 87.5312 22.4375C87.8646 22.8125 88.0938 23.0833 88.2188 23.25C88.6146 23.8333 89.0208 24.4062 89.4375 24.9688C89.8542 25.5312 90.25 26.1146 90.625 26.7188C90.7292 26.8229 90.8125 26.9583 90.875 27.125C90.9375 27.2708 90.9688 27.4271 90.9688 27.5938C90.9688 27.7812 90.9167 27.8854 90.8125 27.9062C90.7292 27.9062 90.6354 27.9271 90.5312 27.9688C90.3229 28.1146 90.1354 28.1979 89.9688 28.2188C89.8021 28.2396 89.6667 28.25 89.5625 28.25C89.3333 28.25 89.0833 28.2396 88.8125 28.2188C88.5417 28.2188 88.3125 28.2396 88.125 28.2812C88.0625 28.3021 87.9896 28.3333 87.9062 28.375C87.8229 28.4375 87.7604 28.4688 87.7188 28.4688C87.5521 28.4688 87.4271 28.4375 87.3438 28.375C87.2812 28.3333 87.1875 28.2917 87.0625 28.25C86.8958 28.0625 86.7396 27.8646 86.5938 27.6562C86.4688 27.4479 86.3333 27.2396 86.1875 27.0312C86.0625 26.8854 85.9271 26.7604 85.7812 26.6562C85.6354 26.5312 85.5 26.3854 85.375 26.2188C85.0417 25.7396 84.6979 25.2812 84.3438 24.8438C84.0104 24.4062 83.6667 23.9688 83.3125 23.5312C83.1458 23.3021 82.9583 23.0833 82.75 22.875C82.5625 22.6667 82.3854 22.4583 82.2188 22.25C82.0521 22.0208 81.8958 21.7812 81.75 21.5312C81.6042 21.2812 81.4479 21.0417 81.2812 20.8125C81.1562 20.6042 80.9792 20.3542 80.75 20.0625C80.5208 19.75 80.2812 19.4375 80.0312 19.125C79.7812 18.8125 79.5208 18.5208 79.25 18.25C79 17.9583 78.7812 17.7396 78.5938 17.5938C78.5938 17.4479 78.5521 17.3438 78.4688 17.2812C78.3854 17.2188 78.2917 17.1458 78.1875 17.0625C78.1458 16.9583 78.0938 16.8646 78.0312 16.7812C77.9688 16.6771 77.9375 16.5625 77.9375 16.4375C77.9375 16.3542 77.9479 16.2812 77.9688 16.2188C77.9896 16.1562 78.0104 16.0938 78.0312 16.0312C78.0729 15.9479 78.0938 15.875 78.0938 15.8125C78.1146 15.7292 78.1458 15.6458 78.1875 15.5625C78.2917 15.2917 78.4375 15.0521 78.625 14.8438C78.8333 14.6354 78.9896 14.3958 79.0938 14.125C79.1146 14.0417 79.125 13.9688 79.125 13.9062C79.125 13.8229 79.1458 13.7396 79.1875 13.6562C79.25 13.5312 79.3438 13.4062 79.4688 13.2812C79.5938 13.1562 79.7083 13.0208 79.8125 12.875C79.9167 12.6875 80.0208 12.5 80.125 12.3125C80.2292 12.125 80.3333 11.9375 80.4375 11.75C80.7292 11.2708 81.0521 10.8125 81.4062 10.375C81.7604 9.91667 82.0938 9.46875 82.4062 9.03125C82.6979 8.61458 82.9688 8.20833 83.2188 7.8125C83.4688 7.39583 83.7396 6.97917 84.0312 6.5625C84.1771 6.35417 84.3438 6.125 84.5312 5.875C84.7188 5.60417 84.9062 5.34375 85.0938 5.09375C85.3021 4.84375 85.5104 4.61458 85.7188 4.40625C85.9271 4.17708 86.1354 4.01042 86.3438 3.90625C86.6979 3.86458 86.9271 3.92708 87.0312 4.09375C87.1354 4.23958 87.2812 4.3125 87.4688 4.3125C87.7604 4.375 87.9583 4.46875 88.0625 4.59375C88.1667 4.71875 88.2708 4.83333 88.375 4.9375C88.6458 4.9375 88.875 4.98958 89.0625 5.09375C89.25 5.19792 89.4375 5.35417 89.625 5.5625C89.5417 5.79167 89.4271 6 89.2812 6.1875C89.1562 6.375 89.0417 6.57292 88.9375 6.78125C88.7708 6.84375 88.6458 6.94792 88.5625 7.09375C88.5 7.23958 88.3958 7.36458 88.25 7.46875C88.0208 7.82292 87.7917 8.17708 87.5625 8.53125C87.3333 8.86458 87.1042 9.1875 86.875 9.5C86.7708 9.625 86.6458 9.72917 86.5 9.8125C86.375 9.875 86.2708 9.97917 86.1875 10.125C86.1458 10.1875 86.1146 10.2604 86.0938 10.3438C86.0729 10.4062 86.0417 10.4688 86 10.5312C85.75 10.9271 85.4688 11.3125 85.1562 11.6875C84.8438 12.0625 84.5729 12.4583 84.3438 12.875C84.2396 13.0208 84.1562 13.1771 84.0938 13.3438C84.0312 13.4896 83.9583 13.6354 83.875 13.7812C83.7917 13.9062 83.6667 14.0833 83.5 14.3125C83.3542 14.5417 83.1979 14.7812 83.0312 15.0312C82.8854 15.2604 82.75 15.4896 82.625 15.7188C82.5208 15.9271 82.4688 16.1042 82.4688 16.25C82.4896 16.3542 82.625 16.5625 82.875 16.875C83.125 17.1875 83.3958 17.5208 83.6875 17.875C84 18.2292 84.2917 18.5625 84.5625 18.875C84.8542 19.1875 85.0417 19.3854 85.125 19.4688ZM105.281 5.65625C105.24 5.73958 105.219 5.82292 105.219 5.90625C105.24 5.98958 105.25 6.08333 105.25 6.1875C105.208 6.4375 105.208 6.5625 105.25 6.5625C105.292 6.5625 105.312 6.58333 105.312 6.625L105.094 6.9375C105.094 7.0625 105.062 7.17708 105 7.28125C104.958 7.38542 104.948 7.51042 104.969 7.65625C104.906 7.76042 104.844 7.86458 104.781 7.96875C104.74 8.07292 104.667 8.17708 104.562 8.28125H104.156C103.927 8.28125 103.677 8.30208 103.406 8.34375C103.156 8.36458 102.906 8.375 102.656 8.375C102.615 8.375 102.562 8.375 102.5 8.375C102.438 8.35417 102.375 8.34375 102.312 8.34375C102.271 8.34375 102.219 8.35417 102.156 8.375C102.094 8.375 102.021 8.375 101.938 8.375C101.625 8.375 101.312 8.36458 101 8.34375C100.708 8.30208 100.396 8.28125 100.062 8.28125C99.9792 8.28125 99.8958 8.28125 99.8125 8.28125C99.7292 8.28125 99.6354 8.29167 99.5312 8.3125C99.5104 8.66667 99.4896 9.03125 99.4688 9.40625C99.4688 9.76042 99.4688 10.125 99.4688 10.5C99.4688 10.6042 99.4583 10.7188 99.4375 10.8438C99.4167 10.9479 99.4062 11.0521 99.4062 11.1562C99.3854 11.4271 99.3646 11.6875 99.3438 11.9375C99.3438 12.1875 99.3438 12.4479 99.3438 12.7188C99.3438 13.3021 99.3438 13.8854 99.3438 14.4688C99.3646 15.0521 99.3854 15.6458 99.4062 16.25C99.4271 16.5625 99.4479 16.8646 99.4688 17.1562C99.4896 17.4479 99.5 17.75 99.5 18.0625C99.5 18.7708 99.4896 19.4792 99.4688 20.1875C99.4479 20.875 99.4375 21.5729 99.4375 22.2812C99.4375 22.5104 99.4271 22.7292 99.4062 22.9375C99.3854 23.125 99.375 23.3333 99.375 23.5625C99.375 24.0417 99.3854 24.5208 99.4062 25C99.4271 25.4792 99.4375 25.9583 99.4375 26.4375C99.4375 26.6667 99.4271 26.8958 99.4062 27.125C99.4062 27.3542 99.4062 27.5833 99.4062 27.8125C99.3021 27.9792 99.2292 28.125 99.1875 28.25C99.1458 28.375 99.0208 28.4375 98.8125 28.4375C98.6667 28.3958 98.5938 28.3438 98.5938 28.2812C98.6146 28.2396 98.6042 28.1979 98.5625 28.1562C98.375 28.1354 98.2292 28.1458 98.125 28.1875C98.0417 28.25 97.9375 28.3021 97.8125 28.3438C97.75 28.3229 97.6771 28.3125 97.5938 28.3125C97.5312 28.3125 97.4688 28.3125 97.4062 28.3125C97.3646 28.3125 97.3229 28.3229 97.2812 28.3438C97.2396 28.3854 97.1458 28.4062 97 28.4062C96.875 28.4271 96.8021 28.4062 96.7812 28.3438C96.7604 28.2812 96.6979 28.25 96.5938 28.25C96.4896 28.3125 96.3646 28.3542 96.2188 28.375C96.0938 28.4167 95.9688 28.4375 95.8438 28.4375C95.7188 28.3542 95.6562 28.2708 95.6562 28.1875C95.6771 28.125 95.6667 28.0521 95.625 27.9688C95.6042 27.9271 95.5625 27.875 95.5 27.8125C95.4583 27.7292 95.4167 27.6667 95.375 27.625C95.4167 27.3333 95.4479 27.0729 95.4688 26.8438C95.4896 26.6146 95.5 26.3646 95.5 26.0938C95.5 25.5521 95.4792 25.0208 95.4375 24.5C95.3958 23.9792 95.375 23.4479 95.375 22.9062C95.375 22.7396 95.3958 22.5625 95.4375 22.375C95.4792 22.1875 95.5 21.9896 95.5 21.7812C95.4583 21.6146 95.4479 21.5208 95.4688 21.5C95.4896 21.4583 95.5 21.4167 95.5 21.375C95.5 21.25 95.4896 21.125 95.4688 21C95.4688 20.875 95.4688 20.75 95.4688 20.625C95.4688 20.375 95.4688 20.125 95.4688 19.875C95.4896 19.625 95.5 19.375 95.5 19.125C95.5 19.0208 95.4896 18.9167 95.4688 18.8125C95.4688 18.6875 95.4688 18.5729 95.4688 18.4688C95.4479 18.2812 95.4375 18.0833 95.4375 17.875C95.4583 17.6667 95.4688 17.4583 95.4688 17.25C95.4688 16.25 95.4479 15.2604 95.4062 14.2812C95.3854 13.3021 95.375 12.3125 95.375 11.3125C95.375 10.8125 95.3958 10.3229 95.4375 9.84375C95.5 9.34375 95.5312 8.84375 95.5312 8.34375C95.5312 8.28125 95.5104 8.19792 95.4688 8.09375C95.4271 7.98958 95.3854 7.91667 95.3438 7.875C95.2396 7.875 95.1354 7.875 95.0312 7.875C94.9479 7.85417 94.8542 7.84375 94.75 7.84375C94.5208 7.84375 94.3021 7.875 94.0938 7.9375C93.6979 7.95833 93.3125 7.98958 92.9375 8.03125C92.5833 8.05208 92.2188 8.07292 91.8438 8.09375C91.5938 8.07292 91.4375 8.07292 91.375 8.09375C91.3333 8.09375 91.2812 8.09375 91.2188 8.09375C91.0521 8.09375 90.9271 8.05208 90.8438 7.96875V7.5625C90.7188 7.3125 90.6667 7.17708 90.6875 7.15625C90.7083 7.13542 90.7188 7.10417 90.7188 7.0625C90.7188 7 90.6667 6.9375 90.5625 6.875C90.4375 6.79167 90.375 6.66667 90.375 6.5C90.3542 6.33333 90.3125 6.20833 90.25 6.125C90.1875 6.04167 90.1562 5.95833 90.1562 5.875C90.1562 5.72917 90.1875 5.5625 90.25 5.375C90.4375 5.27083 90.6146 5.19792 90.7812 5.15625C90.9688 5.11458 91.1771 5.0625 91.4062 5C91.5312 4.95833 91.6458 4.91667 91.75 4.875C91.8542 4.83333 91.9688 4.80208 92.0938 4.78125C92.2396 4.76042 92.3854 4.75 92.5312 4.75C92.6771 4.75 92.8229 4.73958 92.9688 4.71875C93.2812 4.65625 93.6042 4.60417 93.9375 4.5625C94.2917 4.52083 94.625 4.5 94.9375 4.5C95.2292 4.5 95.5208 4.54167 95.8125 4.625C96.1042 4.6875 96.3646 4.71875 96.5938 4.71875C96.9271 4.71875 97.2396 4.73958 97.5312 4.78125C97.8438 4.82292 98.1667 4.84375 98.5 4.84375C98.5417 4.84375 98.6042 4.86458 98.6875 4.90625C98.7917 4.92708 98.9062 4.9375 99.0312 4.9375H102.062C102.229 4.97917 102.344 4.98958 102.406 4.96875C102.49 4.94792 102.562 4.9375 102.625 4.9375C102.792 4.9375 102.948 4.94792 103.094 4.96875C103.24 4.98958 103.396 5 103.562 5C103.708 5 103.823 4.98958 103.906 4.96875C104.073 4.98958 104.229 5.04167 104.375 5.125C104.521 5.1875 104.688 5.21875 104.875 5.21875C104.958 5.28125 105.021 5.36458 105.062 5.46875C105.104 5.55208 105.177 5.61458 105.281 5.65625Z" fill="#FFB300"/>
</svg>
