<svg width="21" height="20" viewBox="0 0 21 20" fill="none" xmlns="http://www.w3.org/2000/svg"><mask id="a" style="mask-type:alpha" maskUnits="userSpaceOnUse" x="0" y="0" width="21" height="20"><path fill="currentColor" d="M.5 0h20v20H.5z"/></mask><g mask="url(#a)"><path d="m16.833 17.5-5.25-5.25a5.08 5.08 0 0 1-3.167 1.083q-2.27 0-3.843-1.573T3 7.917t1.573-3.844T8.417 2.5t3.843 1.573 1.573 3.844a5.08 5.08 0 0 1-1.083 3.166l5.25 5.25zm-8.416-5.833q1.562 0 2.656-1.094t1.094-2.656-1.094-2.657Q9.978 4.167 8.417 4.167T5.76 5.26Q4.667 6.355 4.667 7.917t1.093 2.656 2.657 1.094" fill="currentColor"/></g></svg>